<svg width="123" height="45" viewBox="0 0 123 45" fill="none" xmlns="http://www.w3.org/2000/svg">
<path fill-rule="evenodd" clip-rule="evenodd" d="M30.5343 39.5529C34.3211 39.5529 38.4294 40.8444 42.9768 44.8535C43.4323 45.2552 44.0388 44.7561 43.6416 44.2574C39.1727 38.6435 35.0394 37.5741 30.9171 36.6704C25.8751 35.5651 23.2815 32.7424 21.4741 29.6431C21.1143 29.0262 20.9531 29.135 20.9207 29.9274C20.8812 30.897 20.9482 32.1799 21.1665 33.4419C20.963 33.4513 20.7582 33.4485 20.5527 33.4485C13.3393 33.4485 7.49185 27.6304 7.49185 20.4533C7.49185 13.2762 13.3393 7.45817 20.5527 7.45817C27.766 7.45817 33.6139 13.2762 33.6139 20.4533C33.6139 20.9639 33.5888 21.4687 33.5313 21.9641C32.577 21.7931 30.7 21.7739 29.3831 21.8872C28.8876 21.9297 28.9571 22.1592 29.3317 22.2267C33.6493 23.0028 36.6158 25.6651 37.2938 30.4961C37.3094 30.6073 37.4553 30.6405 37.5133 30.5443C39.2899 27.5948 40.3104 24.1425 40.3104 20.4533C40.3104 9.59649 31.4648 0.794922 20.5527 0.794922C9.64097 0.794922 0.794922 9.59649 0.794922 20.4533C0.794922 31.3106 9.64097 40.1129 20.5527 40.1129C23.4476 40.1129 26.3196 39.5529 30.5343 39.5529ZM32.005 32.4151C32.8841 33.1547 33.1517 34.0338 32.6867 34.654C32.4281 34.994 32.0091 35.1813 31.5067 35.1813C31.0133 35.1813 30.5109 34.9997 30.1622 34.697C29.3629 34.0019 29.1282 32.8753 29.6499 32.2351C29.8538 31.9847 30.1852 31.8468 30.5824 31.8468C31.0647 31.8468 31.57 32.0489 32.005 32.4151ZM36.0609 30.5374C36.19 31.399 35.9162 31.7557 35.6415 31.7557C35.3418 31.7557 34.9656 31.4063 34.5215 30.7174C34.0836 30.0371 33.9233 29.2566 34.1404 28.8622C34.2839 28.6012 34.584 28.4879 34.9627 28.6302C35.6958 28.906 35.9836 30.0228 36.0609 30.5374ZM63.4489 26.0354L61.1711 23.3097C60.9327 23.0237 61.137 22.5905 61.5103 22.5905H66.2756C66.5026 21.9184 66.6309 21.2004 66.6309 20.4546C66.6309 17.04 64.0764 14.0957 60.5704 14.0957C57.0645 14.0957 54.51 17.04 54.51 20.4546C54.51 23.8693 57.0645 26.7718 60.5704 26.7718C61.6329 26.7718 62.6061 26.5018 63.4489 26.0354ZM73.7554 30.6422C74.0029 30.9146 73.7998 31.3532 73.4269 31.3532H68.2266C68.0152 31.3532 67.8142 31.2595 67.6789 31.0975L66.7974 30.0429C65.0023 31.201 62.8647 31.8768 60.5704 31.8768C54.2402 31.8768 49.0905 26.753 49.0905 20.4546C49.0905 14.1563 54.2402 9.03203 60.5704 9.03203C66.9006 9.03203 72.0503 14.1563 72.0503 20.4546C72.0503 22.7251 71.3785 24.8409 70.226 26.6208L73.7554 30.6422ZM121.794 9.55753H117.55C117.239 9.55753 116.986 9.80912 116.986 10.1196V30.7893C116.986 31.0994 117.239 31.351 117.55 31.351H121.794C122.106 31.351 122.359 31.0994 122.359 30.7893V10.1196C122.359 9.80912 122.106 9.55753 121.794 9.55753ZM114.653 9.55753H109.905C109.656 9.55753 109.437 9.7179 109.365 9.9523L105.607 22.1673L101.478 9.9388C101.401 9.71135 101.185 9.55753 100.942 9.55753H97.6287C97.3857 9.55753 97.1699 9.71135 97.093 9.9388L92.9633 22.1673L89.2057 9.9523C89.1334 9.7179 88.9142 9.55753 88.6659 9.55753H83.9174C83.7361 9.55753 83.5655 9.64385 83.4594 9.78908C83.3533 9.9343 83.3246 10.1213 83.3821 10.291L90.3562 30.9721C90.4331 31.1996 90.6489 31.353 90.8919 31.353H94.6606C94.9036 31.353 95.119 31.1996 95.1963 30.9726L99.2853 18.8901L103.374 30.9726C103.452 31.1996 103.667 31.353 103.91 31.353H107.679C107.922 31.353 108.137 31.1996 108.214 30.9721L115.188 10.291C115.246 10.1213 115.217 9.9343 115.111 9.78908C115.005 9.64385 114.834 9.55753 114.653 9.55753ZM81.5843 10.1196V30.7893C81.5843 31.0994 81.3314 31.351 81.0198 31.351H76.7758C76.4641 31.351 76.2113 31.0994 76.2113 30.7893V10.1196C76.2113 9.80912 76.4641 9.55753 76.7758 9.55753H81.0198C81.3314 9.55753 81.5843 9.80912 81.5843 10.1196Z" fill="#FF8C00"/>
</svg>
