<svg width="177" height="33" viewBox="0 0 177 33" fill="none" xmlns="http://www.w3.org/2000/svg">
<path fill-rule="evenodd" clip-rule="evenodd" d="M51.9658 10.3401C51.9093 14.7976 55.9383 17.2852 58.9734 18.7641C62.0919 20.2817 63.1393 21.2547 63.1274 22.6116C63.1036 24.6886 60.6398 25.6051 58.3337 25.6408C54.4193 25.7016 52.0993 24.6159 50.2637 23.7568L50.112 23.6858L48.6628 30.4673C50.5286 31.3273 53.9833 32.0771 57.5659 32.1099C65.9751 32.1099 71.4771 27.9588 71.5068 21.5225C71.5264 16.6361 67.479 14.511 64.2401 12.8105C62.065 11.6685 60.2546 10.7179 60.2857 9.25102C60.3125 8.14408 61.3688 6.96276 63.6839 6.66222C64.8295 6.51046 67.9926 6.39441 71.5782 8.04589L72.9857 1.48461C71.0575 0.78236 68.5788 0.109863 65.493 0.109863C57.5779 0.109863 52.0104 4.31742 51.9658 10.3401ZM86.51 0.674932C84.9745 0.674932 83.6801 1.5706 83.1029 2.94534L71.0902 31.6275L79.4934 31.6275L81.1657 27.0063H91.4346L92.4047 31.6275H99.8111L93.348 0.674932H86.51ZM90.1106 20.6594L87.6855 9.0366L83.469 20.6594H90.1106ZM41.7771 0.674932L35.1534 31.6275H43.1608L49.7816 0.674932L41.7771 0.674932ZM21.5964 21.7424L29.9311 0.674932H38.3403L25.3665 31.6275H16.9038L10.5181 6.92674C10.1312 5.40619 9.79498 4.84677 8.61662 4.20701C6.69139 3.15959 3.51341 2.1806 0.716309 1.57357L0.906749 0.674932H14.5322C16.267 0.674932 17.8292 1.82948 18.225 3.8291L21.5964 21.7424Z" fill="url(#paint0_linear)"/>
<rect x="142.321" y="3.44678" width="15.5166" height="25.3432" fill="#FF5F00"/>
<path d="M176.153 16.1207C176.152 22.2913 172.629 27.9201 167.079 30.6165C161.529 33.313 154.926 32.6038 150.075 28.7901C153.963 25.7346 156.233 21.0634 156.233 16.1185C156.233 11.1736 153.963 6.50239 150.075 3.44689C154.926 -0.366844 161.529 -1.07608 167.079 1.62041C172.629 4.31689 176.152 9.94569 176.153 16.1162V16.1207Z" fill="#F79E1B"/>
<path d="M143.919 16.1206C143.915 11.176 146.185 6.50415 150.075 3.45125C143.467 -1.74181 133.978 -0.985396 128.276 5.18891C122.575 11.3632 122.575 20.8825 128.276 27.0568C133.978 33.2311 143.467 33.9875 150.075 28.7944C146.184 25.7405 143.914 21.0668 143.919 16.1206Z" fill="#EB001B"/>
<path fill-rule="evenodd" clip-rule="evenodd" d="M175.646 25.4817V26.1084H175.534V25.6339L175.36 26.0413H175.239L175.064 25.6339V26.1084H174.948V25.4817H175.109L175.297 25.9294L175.485 25.4817H175.646ZM174.612 25.5892V26.1085H174.514V25.5892H174.303V25.4817H174.836V25.5892H174.612Z" fill="#F79E1B"/>
<defs>
<linearGradient id="paint0_linear" x1="-438.397" y1="174.275" x2="-437.477" y2="-138.771" gradientUnits="userSpaceOnUse">
<stop stop-color="#222357"/>
<stop offset="1" stop-color="#254AA5"/>
</linearGradient>
</defs>
</svg>
