<svg width="182" height="35" viewBox="0 0 182 35" fill="none" xmlns="http://www.w3.org/2000/svg">
<path fill-rule="evenodd" clip-rule="evenodd" d="M108.251 2.05302H101.861C101.737 9.53186 101.53 15.2342 101.201 19.4906C100.829 23.9113 100.17 26.845 99.0569 28.2097H108.251V2.05302ZM110.436 29.9031H97.8201L97.5309 34.8204H95.9233V28.2097H96.7892C98.2323 27.0104 98.9328 23.7052 99.3451 19.4906C99.7574 15.1108 99.8811 8.58141 100.005 0.358887H110.312V28.2097H112.334V34.8204H110.724L110.436 29.9031Z" fill="black"/>
<path fill-rule="evenodd" clip-rule="evenodd" d="M115.925 18.0497H123.523C123.855 12.5948 122.194 10.1524 120.077 10.1524C117.877 10.1524 116.091 12.9204 115.925 18.0497ZM120.492 28.2287C123.273 28.2287 124.726 26.0308 124.726 26.0308L125.349 27.5765C125.349 27.5765 123.771 29.8973 120.451 29.8973C116.01 29.8973 113.975 25.948 113.975 19.2313C113.975 12.5133 116.548 8.56396 120.077 8.56396C123.688 8.56396 126.012 12.2695 125.349 19.5576H115.884C115.967 25.1755 117.461 28.2287 120.492 28.2287Z" fill="black"/>
<path fill-rule="evenodd" clip-rule="evenodd" d="M138.202 19.6119H130.773V29.8973H128.744V8.56396H130.773V18.0025H138.202V8.56396H140.231V29.8973H138.202V19.6119Z" fill="black"/>
<path fill-rule="evenodd" clip-rule="evenodd" d="M145.424 18.0456V28.331H146.645C149.533 28.331 151.487 26.8504 151.487 23.1674C151.487 19.5702 149.778 18.0456 146.848 18.0456H145.424ZM143.513 8.56396H145.424V16.4796H146.931C150.836 16.4796 153.359 18.6806 153.359 23.1254C153.359 27.6539 150.673 29.8973 146.808 29.8973H143.513V8.56396Z" fill="black"/>
<path fill-rule="evenodd" clip-rule="evenodd" d="M160.054 10.2154V29.8973H158.282V8.56396H166.487V10.2154H160.054Z" fill="black"/>
<path fill-rule="evenodd" clip-rule="evenodd" d="M179.377 15.0404C179.377 13.9397 179.46 13.0084 179.545 12.1195H179.419C179.126 13.0508 178.751 13.9397 178.291 14.8709L171.44 29.8973H169.77V8.56396H171.608V23.3785C171.608 24.5212 171.523 25.4525 171.44 26.3838H171.565C171.858 25.4108 172.275 24.4796 172.693 23.5483L179.545 8.56396H181.257V29.8973H179.377V15.0404Z" fill="black"/>
<path fill-rule="evenodd" clip-rule="evenodd" d="M12.282 3.0443H10.5617C7.9603 3.0443 5.44324 4.73809 5.44324 9.65445C5.44324 14.4051 7.75034 15.9338 10.5617 15.9338H12.282V3.0443ZM9.59658 18.5779L4.47813 29.8973H0.743652L6.36636 17.7927C3.72227 16.4706 1.96002 14.0747 1.96002 9.65445C1.96002 3.45741 5.94609 0.358887 10.6877 0.358887H15.5129V29.8973H12.282V18.5779H9.59658Z" fill="#FF0000"/>
<path fill-rule="evenodd" clip-rule="evenodd" d="M76.2717 19.7122C76.2717 12.9109 78.7839 8.56396 83.6424 8.56396C85.4946 8.56396 86.5653 9.08054 87.4711 9.68256L87.0182 12.8685C86.1536 12.0931 84.9184 11.3619 83.6009 11.3619C81.2951 11.3619 79.6485 14.0733 79.6485 19.5399C79.6485 24.963 80.8833 28.0629 83.4772 28.0629C85.0417 28.0629 86.236 27.4171 86.977 26.7285L87.718 29.2245C86.6065 30.2143 85.2889 30.8601 83.3948 30.8601C78.9481 30.8601 76.2717 27.1159 76.2717 19.7122ZM66.8847 19.7546V30.5589H63.6731V8.86479H66.8847V18.8941L71.8665 8.86479H75.1194L69.9728 19.0664L75.86 30.5589H72.3606L66.8847 19.7546ZM51.7743 17.732H57.0857C57.0857 14.0302 56.5091 11.3184 54.6566 11.3184C52.6801 11.3184 51.9803 13.8579 51.7743 17.732ZM55.3152 30.8601C51.0332 30.8601 48.3985 27.2882 48.3985 20.6168C48.3985 13.6429 50.2514 8.56396 54.6566 8.56396C58.1151 8.56396 60.3797 11.2754 60.3797 18.6352V20.4869H51.7331C51.7331 25.3942 53.0506 27.9767 55.6033 27.9767C57.415 27.9767 58.8561 27.1159 59.6796 26.5135L60.4209 29.0946C59.1034 30.1715 57.3738 30.8601 55.3152 30.8601ZM41.6459 11.5766H38.0637V11.9646C38.0637 16.5269 37.8581 23.1979 36.1288 27.804H41.6459V11.5766ZM46.4628 34.8204H43.5812V30.5589H34.6876V34.8204H31.806V27.804H33.0823C34.9757 23.1979 35.1817 16.4839 35.1817 10.7157V8.86479H44.8163V27.804H46.4628V34.8204ZM29.9531 8.86479V30.5589H26.7826V20.8315H22.0066V30.5589H18.7949V8.86479H22.0066V18.0756H26.7826V8.86479H29.9531Z" fill="black"/>
</svg>
