<svg width="48" height="48" viewBox="0 0 48 48" fill="none" xmlns="http://www.w3.org/2000/svg">
<circle cx="24" cy="24" r="23" stroke="#EDEFF3" stroke-width="2"/>
<g clip-path="url(#clip0)">
<path fill-rule="evenodd" clip-rule="evenodd" d="M29.8375 30.6667C30.2958 30.6667 30.6667 30.2957 30.6667 29.8375V18.1627C30.6667 17.7044 30.2957 17.3334 29.8375 17.3334H18.1627C17.7044 17.3334 17.3334 17.7045 17.3334 18.1627V29.8375C17.3334 30.2958 17.7045 30.6667 18.1627 30.6667H24.0001V25.6667H23.1663C22.7061 25.6667 22.333 25.2937 22.333 24.8334C22.333 24.3732 22.7061 24.0001 23.1663 24.0001H24.0001C24.0001 22.4194 24.1786 21.4232 24.92 20.5934C25.6531 19.7728 26.5098 19.4167 27.3334 19.4167C27.7937 19.4167 28.1667 19.7898 28.1667 20.2501C28.1667 20.7103 27.7937 21.0834 27.3334 21.0834C26.9691 21.0834 26.5683 21.25 26.1628 21.7038C25.7938 22.1168 25.6667 22.8261 25.6667 24.0001H27.3334C27.7937 24.0001 28.1667 24.3732 28.1667 24.8334C28.1667 25.2937 27.7937 25.6667 27.3334 25.6667H25.6667V30.6667H29.8375ZM15.6667 29.8375V18.1627C15.6667 16.7841 16.7838 15.6667 18.1627 15.6667H29.8375C31.2161 15.6667 32.3334 16.7838 32.3334 18.1627V29.8375C32.3334 31.2161 31.2163 32.3334 29.8375 32.3334H18.1627C16.7841 32.3334 15.6667 31.2163 15.6667 29.8375Z" fill="#3C579D"/>
</g>
<defs>
<clipPath id="clip0">
<rect x="15" y="15" width="18" height="18" fill="white"/>
</clipPath>
</defs>
</svg>
