<svg width="48" height="48" viewBox="0 0 48 48" fill="none" xmlns="http://www.w3.org/2000/svg">
<rect x="1" y="1" width="46" height="46" rx="23" stroke="#EDEFF3" stroke-width="2"/>
<path fill-rule="evenodd" clip-rule="evenodd" d="M24 29.8333C20.7783 29.8333 18.1667 27.2217 18.1667 24C18.1667 20.7783 20.7783 18.1667 24 18.1667C25.3307 18.1667 26.591 18.6125 27.6129 19.4199C27.9741 19.7052 28.4981 19.6437 28.7834 19.2826C29.0688 18.9215 29.0073 18.3974 28.6462 18.1121C27.3326 17.0743 25.709 16.5 24 16.5C19.8579 16.5 16.5 19.8579 16.5 24C16.5 28.1421 19.8579 31.5 24 31.5C28.1421 31.5 31.5 28.1421 31.5 24C31.5 23.5398 31.1269 23.1667 30.6667 23.1667H24.8309C24.3727 23.1667 24 23.5398 24 24C24 24.4634 24.372 24.8333 24.8309 24.8333H29.7743C29.3699 27.6602 26.9387 29.8333 24 29.8333Z" fill="#DB4C3F"/>
</svg>
