<svg width="48" height="48" viewBox="0 0 48 48" fill="none" xmlns="http://www.w3.org/2000/svg">
<circle cx="24" cy="24" r="23" stroke="#EDEFF3" stroke-width="2"/>
<g clip-path="url(#clip0)">
<path fill-rule="evenodd" clip-rule="evenodd" d="M32.3334 24.0001V25.2508C32.3334 26.8606 31.0258 28.1667 29.4167 28.1667C28.4125 28.1667 27.527 27.6606 27.0024 26.8892C26.2444 27.6768 25.1795 28.1667 24.0001 28.1667C21.6989 28.1667 19.8334 26.3013 19.8334 24.0001C19.8334 21.6989 21.6989 19.8334 24.0001 19.8334C24.939 19.8334 25.8054 20.144 26.5021 20.6679C26.5021 20.0893 26.9848 19.8346 27.3334 19.8346C27.682 19.8346 28.1667 20.095 28.1667 20.6679V24.0001V25.2534C28.1667 25.9427 28.7253 26.5001 29.4167 26.5001C30.1058 26.5001 30.6667 25.9397 30.6667 25.2508V24.0001C30.6667 20.3182 27.682 17.3334 24.0001 17.3334C20.3182 17.3334 17.3334 20.3182 17.3334 24.0001C17.3334 27.682 20.3182 30.6667 24.0001 30.6667C24.4603 30.6667 24.8334 31.0398 24.8334 31.5001C24.8334 31.9603 24.4603 32.3334 24.0001 32.3334C19.3977 32.3334 15.6667 28.6025 15.6667 24.0001C15.6667 19.3977 19.3977 15.6667 24.0001 15.6667C28.6025 15.6667 32.3334 19.3977 32.3334 24.0001ZM26.5001 24.0001C26.5001 22.6194 25.3808 21.5001 24.0001 21.5001C22.6194 21.5001 21.5001 22.6194 21.5001 24.0001C21.5001 25.3808 22.6194 26.5001 24.0001 26.5001C25.3808 26.5001 26.5001 25.3808 26.5001 24.0001Z" fill="#238EDF"/>
</g>
<defs>
<clipPath id="clip0">
<rect x="15" y="15" width="18" height="18" fill="white"/>
</clipPath>
</defs>
</svg>
