<svg width="48" height="48" viewBox="0 0 48 48" fill="none" xmlns="http://www.w3.org/2000/svg">
<circle cx="24" cy="24" r="23" stroke="#EDEFF3" stroke-width="2"/>
<g clip-path="url(#clip0)">
<path fill-rule="evenodd" clip-rule="evenodd" d="M24.2057 23.1667C25.5864 23.1667 26.7057 22.0474 26.7057 20.6667C26.7057 19.286 25.5864 18.1667 24.2057 18.1667C22.825 18.1667 21.7057 19.286 21.7057 20.6667C21.7057 22.0474 22.825 23.1667 24.2057 23.1667ZM29.1282 26.3145C29.4746 26.0115 29.5099 25.4851 29.2069 25.1386C28.904 24.7921 28.3775 24.7569 28.0311 25.0598C26.9752 25.9831 25.6378 26.5 24.2057 26.5C22.7742 26.5 21.4374 25.9836 20.3817 25.061C20.0351 24.7582 19.5087 24.7936 19.2058 25.1401C18.903 25.4867 18.9384 26.0131 19.285 26.316C20.2773 27.1831 21.4611 27.7719 22.7516 28.0256L20.2956 30.4941C19.9702 30.8195 19.9702 31.3472 20.2956 31.6726C20.621 31.998 21.1487 31.998 21.4741 31.6726L24.2057 28.9285L26.9373 31.6726C27.2627 31.998 27.7904 31.998 28.1158 31.6726C28.4412 31.3472 28.4412 30.8195 28.1158 30.4941L25.6598 28.0256C26.9511 27.7717 28.1355 27.1824 29.1282 26.3145ZM24.2057 24.8333C21.9045 24.8333 20.039 22.9679 20.039 20.6667C20.039 18.3655 21.9045 16.5 24.2057 16.5C26.5069 16.5 28.3724 18.3655 28.3724 20.6667C28.3724 22.9679 26.5069 24.8333 24.2057 24.8333Z" fill="#F58432"/>
</g>
<defs>
<clipPath id="clip0">
<rect x="19" y="16" width="11" height="16" fill="white"/>
</clipPath>
</defs>
</svg>
