<svg width="48" height="48" viewBox="0 0 48 48" fill="none" xmlns="http://www.w3.org/2000/svg">
<circle cx="24" cy="24" r="23" stroke="#EDEFF3" stroke-width="2"/>
<g clip-path="url(#clip0)">
<path fill-rule="evenodd" clip-rule="evenodd" d="M24.8335 29.0003C24.8335 29.6122 24.196 30.0154 23.6431 29.7532C23.5366 29.7027 23.3517 29.6075 23.0994 29.4658C22.6876 29.2345 22.2311 28.9534 21.7409 28.6209C20.3466 27.6751 18.9543 26.5031 17.6544 25.0904C16.3166 23.6315 15.3643 22.2429 14.7143 20.9466C14.3138 20.1479 14.1017 19.5432 14.0206 19.1836C13.9193 18.7346 14.2012 18.2886 14.6502 18.1873C15.0991 18.0861 15.5452 18.368 15.6464 18.8169C15.6561 18.8598 16.0047 19.8018 16.2042 20.1996C16.7855 21.3591 17.6502 22.6198 18.8554 23.9342C20.0889 25.2748 21.3837 26.3646 22.6766 27.2417C22.8449 27.3559 23.0085 27.4632 23.1668 27.5638L23.1678 19.8336H22.3354C21.8752 19.8336 21.5021 19.4605 21.5021 19.0003C21.5021 18.54 21.8752 18.1669 22.3354 18.1669H23.1678C24.0885 18.1669 24.8335 18.9145 24.8335 19.8357V24.0003C24.8335 24.0003 25.6881 24.0003 25.6989 24.0005C26.8642 23.9895 28.3578 23.3782 29.4404 22.3493C29.6732 22.128 29.9366 21.846 30.2235 21.5127C30.4125 21.2932 30.6097 21.0538 30.8132 20.7977C31.206 20.3034 31.603 19.7715 31.9833 19.2395C32.1164 19.0531 32.4534 18.5678 32.476 18.5342C32.7334 18.1527 33.2513 18.052 33.6329 18.3094C34.0144 18.5668 34.1151 19.0847 33.8577 19.4663C33.8315 19.5051 33.4776 20.0149 33.3393 20.2085C32.9438 20.762 32.5303 21.3157 32.118 21.8346C31.9016 22.107 31.6906 22.3631 31.4865 22.6001C31.166 22.9724 30.8662 23.2935 30.5886 23.5573C30.0436 24.0753 29.4197 24.5098 28.7664 24.8472C29.3234 25.083 29.8761 25.3565 30.3671 25.652C30.8281 25.9295 31.2996 26.2611 31.7764 26.6355C32.2739 27.0261 32.7515 27.4428 33.1939 27.8595C33.3489 28.0055 33.7395 28.3933 33.7693 28.4246C34.0873 28.7573 34.0753 29.2848 33.7426 29.6028C33.4098 29.9207 32.8823 29.9087 32.5643 29.576C32.5432 29.5538 32.1938 29.2071 32.051 29.0726C31.6428 28.6881 31.202 28.3035 30.7471 27.9463C30.3211 27.6118 29.9047 27.319 29.5076 27.0799C28.2095 26.2985 26.3496 25.6837 25.6931 25.6673C25.6843 25.6673 24.8335 25.6673 24.8335 25.6673V29.0003Z" fill="#46688C"/>
</g>
<defs>
<clipPath id="clip0">
<rect x="14" y="18" width="20" height="12" fill="white"/>
</clipPath>
</defs>
</svg>
