<svg width="24" height="22" viewBox="0 0 24 22" fill="none" xmlns="http://www.w3.org/2000/svg">
<path fill-rule="evenodd" clip-rule="evenodd" d="M13.1721 21.5H3.828C3.18663 21.5 2.66671 20.9739 2.66671 20.3283V15.6717C2.66671 15.0246 3.19066 14.5 3.828 14.5H5.00004V12.1667H3.828C3.18663 12.1667 2.66671 11.6405 2.66671 10.995V7.5H1.49466C0.853298 7.5 0.333374 6.97385 0.333374 6.32835V1.67165C0.333374 1.02456 0.857324 0.5 1.49466 0.5H10.8388C11.4801 0.5 12 1.02615 12 1.67165V5.16667H13.1721C13.8135 5.16667 14.3334 5.69281 14.3334 6.33832V9.83333H17.8334C21.055 9.83333 23.6667 12.445 23.6667 15.6667C23.6667 18.8883 21.055 21.5 17.8334 21.5C16.5202 21.5 15.3083 21.0661 14.3334 20.3338C14.3305 20.9784 13.8077 21.5 13.1721 21.5ZM7.33337 12.1667V14.5H12.1167C12.2917 13.638 12.6568 12.845 13.1663 12.1667H7.33337ZM2.66671 2.83333V5.16667H9.66671V2.83333H2.66671ZM5.00004 7.5V9.83333H12V7.5H5.00004ZM5.00004 16.8333V19.1667H12V16.8333H5.00004ZM17.8334 19.1667C19.7664 19.1667 21.3334 17.5997 21.3334 15.6667C21.3334 13.7337 19.7664 12.1667 17.8334 12.1667C15.9004 12.1667 14.3334 13.7337 14.3334 15.6667C14.3334 17.5997 15.9004 19.1667 17.8334 19.1667Z" fill="#FB6F78"/>
</svg>
