<?xml version="1.0" encoding="iso-8859-1"?>
<!-- Generator: Adobe Illustrator 19.0.0, SVG Export Plug-In . SVG Version: 6.00 Build 0)  -->
<svg version="1.1" id="Layer_1" xmlns="http://www.w3.org/2000/svg" xmlns:xlink="http://www.w3.org/1999/xlink"
	x="0px" y="0px" viewBox="-21 0 512 512" style="enable-background:new 0 0 512 512;" xml:space="preserve">
	<path fill="#aab3b9" d="m186.667969 416c-49.984375 0-90.667969-40.683594-90.667969-90.667969v-218.664062h-37.332031c-32.363281 0-58.667969 26.300781-58.667969 58.664062v288c0 32.363281 26.304688 58.667969 58.667969 58.667969h266.664062c32.363281 0 58.667969-26.304688 58.667969-58.667969v-37.332031zm0 0"/>
  <path fill="#aab3b9" d="m469.332031 58.667969c0-32.40625-26.261719-58.667969-58.664062-58.667969h-224c-32.40625 0-58.667969 26.261719-58.667969 58.667969v266.664062c0 32.40625 26.261719 58.667969 58.667969 58.667969h224c32.402343 0 58.664062-26.261719 58.664062-58.667969zm0 0"/>
</svg>
