<svg width="20" height="20" viewBox="0 0 20 20" fill="none" xmlns="http://www.w3.org/2000/svg">
<path fill-rule="evenodd" clip-rule="evenodd" d="M18.0044 4C19.1069 4 20 4.89234 20 5.9957V18.326C20 19.6017 18.8405 20.3454 17.6791 19.8277L16.01 19.0827L13.9134 19.9282C13.6748 20.0238 13.4086 20.0239 13.1699 19.9285L11 19.0827L9.31923 19.8386C8.15323 20.3454 7 19.6006 7 18.326V15.5157L6.5 15.7541C6.5 15.7541 6.20657 15.8387 6 15.8387C5.79343 15.8387 5.5 15.75 5.5 15.75L4 15.0827L2.31923 15.8387C1.15323 16.3454 0 15.6006 0 14.326V1.9957C0 0.893362 0.892695 0 1.99558 0H11.0044C12.1069 0 13 0.892345 13 1.9957V4H18.0044ZM11.0044 2L2 1.9957V13.8006L3.64229 13.0829C3.88713 12.9765 4.16436 12.9724 4.41224 13.0715C4.41224 13.0715 5.71337 13.6862 6 13.8006L7 13.35V10H4.00293C3.44903 10 3 9.55614 3 9C3 8.44771 3.44853 8 4.00293 8H7V6H4.00293C3.44903 6 3 5.55614 3 5C3 4.44772 3.44853 4 4.00293 4H11.0029C11.0034 2.8076 11.0044 2 11.0044 2ZM18.0044 6L9 5.9957V17.8006L10.6423 17.0829C10.8871 16.9765 11.1644 16.9724 11.4122 17.0715L13.5066 17.9068L15.6631 17.0718C15.9142 16.9712 16.1954 16.9765 16.4424 17.0866L18 17.7863L18.0044 6ZM10 13C10 12.4477 10.4485 12 11.0029 12H15.9971C16.551 12 17 12.4439 17 13C17 13.5523 16.5515 14 15.9971 14H11.0029C10.449 14 10 13.5561 10 13ZM10 9C10 8.44771 10.4485 8 11.0029 8H15.9971C16.551 8 17 8.44386 17 9C17 9.55229 16.5515 10 15.9971 10H11.0029C10.449 10 10 9.55614 10 9Z" fill="#FB6F78"/>
</svg>
