<svg width="26" height="27" viewBox="0 0 26 27" fill="none" xmlns="http://www.w3.org/2000/svg">
<path fill-rule="evenodd" clip-rule="evenodd" d="M25.8334 18.2501C25.8334 23.0826 21.9158 27.0001 17.0834 27.0001C14.1134 27.0001 11.4891 25.5204 9.90733 23.2581L8.33698 22.473L6.52343 23.3768C6.19502 23.5411 5.80844 23.5412 5.47995 23.377L3.67 22.4726L1.85509 23.3769C1.07937 23.7648 0.166687 23.2007 0.166687 22.3334V2.49994C0.166687 1.21033 1.20881 0.166748 2.50105 0.166748H18.8323C20.1219 0.166748 21.1667 1.20856 21.1667 2.49994V10.5092C23.9421 11.9763 25.8334 14.8924 25.8334 18.2501ZM18.8323 2.50008L2.50002 2.49994V20.444L3.14495 20.1233C3.47331 19.9591 3.85978 19.959 4.18818 20.1231L6.0117 21.0332L7.81137 20.1234C8.03026 20.0139 8.275 19.9773 8.51116 20.0138C8.39458 19.4441 8.33335 18.8542 8.33335 18.2501C8.33335 17.6508 8.3936 17.0655 8.50838 16.5001H6.00052C5.35591 16.5001 4.83335 15.9822 4.83335 15.3334C4.83335 14.6891 5.3593 14.1667 6.00052 14.1667H9.34258C10.8097 11.3914 13.7256 9.50008 17.0834 9.50008C17.6836 9.50008 18.2698 9.56054 18.8361 9.67568C18.8348 5.86193 18.8323 2.50008 18.8323 2.50008ZM4.83335 10.6667C4.83335 10.0224 5.3506 9.50008 5.99892 9.50008H8.33446C8.97818 9.50008 9.50002 10.0179 9.50002 10.6667C9.50002 11.3111 8.98277 11.8334 8.33446 11.8334H5.99892C5.3552 11.8334 4.83335 11.3156 4.83335 10.6667ZM4.83335 6.00008C4.83335 5.35576 5.3573 4.83342 5.99464 4.83342H15.3387C15.9801 4.83342 16.5 5.35125 16.5 6.00008C16.5 6.64441 15.9761 7.16675 15.3387 7.16675H5.99464C5.35328 7.16675 4.83335 6.64891 4.83335 6.00008ZM17.0834 24.6667C20.6272 24.6667 23.5 21.7939 23.5 18.2501C23.5 14.7063 20.6272 11.8334 17.0834 11.8334C13.5395 11.8334 10.6667 14.7063 10.6667 18.2501C10.6667 21.7939 13.5395 24.6667 17.0834 24.6667ZM15.0917 21.9916L12.7586 19.6583C12.303 19.2027 12.3031 18.464 12.7587 18.0084C13.2144 17.5528 13.9531 17.5529 14.4087 18.0085L15.9303 19.5304L19.7584 15.6751C20.214 15.2195 20.9527 15.2195 21.4083 15.6751C21.8639 16.1307 21.8639 16.8695 21.4083 17.3251L16.7416 21.9918C16.286 22.4474 15.5473 22.4473 15.0917 21.9916Z" fill="#FB6F78"/>
</svg>
