<svg width="24" height="20" viewBox="0 0 24 20" fill="none" xmlns="http://www.w3.org/2000/svg">
<path fill-rule="evenodd" clip-rule="evenodd" d="M15.5058 5.33341C15.5058 5.97775 14.9833 6.50008 14.3387 6.50008C13.6941 6.50008 13.1716 5.97775 13.1716 5.33341C13.1716 5.33341 13.17 3.00008 13.1686 3.00008C13.1686 3.00008 2.66748 2.99941 2.66748 2.99497C2.66748 2.99497 2.6692 14.5694 2.67019 16.6739L2.67047 17.0001C2.67047 17.0001 13.1716 16.9999 13.1716 17.0013L13.1716 14.6667C13.1716 14.0224 13.6941 13.5001 14.3387 13.5001C14.9833 13.5001 15.5058 14.0224 15.5058 14.6667L15.5058 17.0013C15.5058 18.2903 14.4588 19.3334 13.1686 19.3334H2.67047C1.38245 19.3334 0.333295 18.2889 0.333295 17.0052L0.333295 2.99497C0.333295 1.70726 1.38121 0.666748 2.67047 0.666748L13.1686 0.666748C14.458 0.666748 15.5058 1.71174 15.5058 2.99887V5.33341ZM23.6666 10.0054C23.6668 10.304 23.5535 10.6023 23.3227 10.8331L20.0286 14.1259C19.572 14.5823 18.8304 14.585 18.3746 14.1294C17.9156 13.6706 17.9203 12.9335 18.378 12.4759L19.6833 11.1712L6.17831 11.1712C5.53334 11.1712 5.01078 10.6489 5.01078 10.0046C5.01078 9.35574 5.53351 8.8379 6.17831 8.8379L19.6833 8.8379L18.378 7.53322C17.9214 7.07677 17.9188 6.3354 18.3746 5.87979C18.8336 5.421 19.5709 5.42574 20.0286 5.8833C20.0286 5.8833 23.3239 9.17726 23.3263 9.17961C23.5551 9.40842 23.6687 9.70646 23.6666 10.0054Z" fill="white"/>
</svg>
