<svg width="20" height="24" viewBox="0 0 20 24" fill="none" xmlns="http://www.w3.org/2000/svg">
<path fill-rule="evenodd" clip-rule="evenodd" d="M19.3334 14.3345C19.3334 11.8297 18.321 10.0033 16.5508 8.51375C16.0367 8.08116 14.6516 7.11945 14.5411 7.02087C12.9308 5.5833 12.3148 4.24887 12.9127 1.7685C13.1434 0.811411 12.154 0.0181339 11.2674 0.449305C7.43769 2.31168 5.88454 6.23181 6.18386 9.71747C5.73509 9.07241 5.42709 8.231 5.32677 7.24253C5.21514 6.14246 3.77428 5.80244 3.18087 6.73613C1.30553 9.68687 0.666687 11.4621 0.666687 14.3345C0.666687 19.5501 4.87337 23.6622 10.0134 23.6622C15.1489 23.6622 19.3334 19.5529 19.3334 14.3345ZM3.00002 14.3345C3.00002 11.963 3.49299 11.1211 3.83567 10.3116C4.72688 12.0353 6.18509 13.1614 7.66028 13.1614C8.40379 13.1614 8.9576 12.4765 8.80066 11.7511C7.7883 7.07201 9.58442 4.70767 10.3661 3.94714C10.4945 5.90688 11.4396 7.37658 12.9856 8.75673C13.2301 8.97504 14.6531 9.96301 15.0468 10.2943C16.3288 11.373 17 12.584 17 14.3345C17 18.2582 13.8686 21.3333 10.0134 21.3333C6.15127 21.3333 3.00002 18.2529 3.00002 14.3345Z" fill="#FB6F78"/>
</svg>
