<svg width="20" height="24" viewBox="0 0 20 24" fill="none" xmlns="http://www.w3.org/2000/svg">
<path fill-rule="evenodd" clip-rule="evenodd" d="M11.1345 4.75384L4.53067 12.5702H7.75818C8.37644 12.5702 8.87741 13.0823 8.87714 13.7089L8.87473 19.2387L15.4875 11.4297H12.2465C11.6257 11.4297 11.1233 10.9169 11.1245 10.2897L11.1345 4.75384ZM13.3672 9.14875H18.1164C19.3556 9.14875 19.7073 9.92107 18.8976 10.8789L8.82698 22.7922C7.61521 24.2257 6.63287 23.86 6.63287 21.9637V14.8511H1.88363C0.644446 14.8511 0.29275 14.0788 1.10245 13.1209L11.1731 1.20765C12.3848 -0.225843 13.3672 0.139806 13.3672 2.03611V9.14875Z" fill="#FB6F78"/>
</svg>
