<svg width="120" height="48" viewBox="0 0 120 48" fill="none" xmlns="http://www.w3.org/2000/svg">
<g id="Badge">
<rect id="Result" width="120" height="48" rx="8" fill="#F9F9F9"/>
<g id="We accept" opacity="0.6">
<path d="M13.2011 17L12.5411 8.62402H13.4411L13.7891 13.424L13.9691 15.956H14.0651L15.1691 10.808H16.2971L17.4011 15.956H17.4971L17.6771 13.424L18.0251 8.62402H18.9011L18.2411 17H16.7891L15.7691 11.996H15.6731L14.6531 17H13.2011Z" fill="#18284E"/>
<path d="M23.0245 17.144C22.5765 17.144 22.1725 17.068 21.8125 16.916C21.4605 16.764 21.1564 16.548 20.9004 16.268C20.6524 15.98 20.4605 15.64 20.3245 15.248C20.1885 14.848 20.1205 14.404 20.1205 13.916C20.1205 13.42 20.1885 12.972 20.3245 12.572C20.4685 12.172 20.6644 11.832 20.9124 11.552C21.1604 11.264 21.4565 11.044 21.8005 10.892C22.1525 10.74 22.5405 10.664 22.9645 10.664C23.3805 10.664 23.7564 10.74 24.0925 10.892C24.4365 11.044 24.7285 11.256 24.9685 11.528C25.2085 11.792 25.3925 12.108 25.5205 12.476C25.6485 12.844 25.7125 13.248 25.7125 13.688V14.144H21.1285V14.432C21.1285 14.704 21.1725 14.956 21.2605 15.188C21.3485 15.42 21.4725 15.62 21.6325 15.788C21.8005 15.956 22.0005 16.088 22.2325 16.184C22.4725 16.272 22.7365 16.316 23.0245 16.316C23.4405 16.316 23.8005 16.22 24.1045 16.028C24.4085 15.836 24.6405 15.572 24.8005 15.236L25.5085 15.716C25.3245 16.132 25.0164 16.476 24.5844 16.748C24.1604 17.012 23.6405 17.144 23.0245 17.144ZM22.9645 11.456C22.7005 11.456 22.4565 11.504 22.2325 11.6C22.0085 11.696 21.8125 11.828 21.6445 11.996C21.4845 12.164 21.3565 12.364 21.2605 12.596C21.1725 12.82 21.1285 13.068 21.1285 13.34V13.424H24.6805V13.292C24.6805 13.02 24.6365 12.772 24.5485 12.548C24.4685 12.324 24.3525 12.132 24.2004 11.972C24.0565 11.804 23.8765 11.676 23.6604 11.588C23.4525 11.5 23.2205 11.456 22.9645 11.456Z" fill="#18284E"/>
<path d="M39.6471 17C39.2711 17 39.0031 16.904 38.8431 16.712C38.6831 16.52 38.5831 16.28 38.5431 15.992H38.4831C38.3471 16.352 38.1271 16.636 37.8231 16.844C37.5271 17.044 37.1271 17.144 36.6231 17.144C35.9751 17.144 35.4591 16.976 35.0751 16.64C34.6911 16.304 34.4991 15.844 34.4991 15.26C34.4991 14.684 34.7071 14.24 35.1231 13.928C35.5471 13.616 36.2271 13.46 37.1631 13.46H38.4831V12.848C38.4831 12.392 38.3551 12.052 38.0991 11.828C37.8431 11.596 37.4791 11.48 37.0071 11.48C36.5911 11.48 36.2511 11.564 35.9871 11.732C35.7231 11.892 35.5111 12.112 35.3511 12.392L34.7031 11.912C34.7831 11.752 34.8911 11.596 35.0271 11.444C35.1631 11.292 35.3311 11.16 35.5311 11.048C35.7311 10.928 35.9591 10.836 36.2151 10.772C36.4711 10.7 36.7551 10.664 37.0671 10.664C37.7951 10.664 38.3711 10.848 38.7951 11.216C39.2271 11.584 39.4431 12.096 39.4431 12.752V16.16H40.3071V17H39.6471ZM36.7911 16.34C37.0391 16.34 37.2631 16.312 37.4631 16.256C37.6711 16.192 37.8511 16.112 38.0031 16.016C38.1551 15.912 38.2711 15.792 38.3511 15.656C38.4391 15.512 38.4831 15.36 38.4831 15.2V14.18H37.1631C36.5871 14.18 36.1671 14.26 35.9031 14.42C35.6391 14.58 35.5071 14.812 35.5071 15.116V15.368C35.5071 15.688 35.6191 15.932 35.8431 16.1C36.0751 16.26 36.3911 16.34 36.7911 16.34Z" fill="#18284E"/>
<path d="M44.7184 17.144C44.2704 17.144 43.8704 17.068 43.5184 16.916C43.1744 16.756 42.8824 16.536 42.6424 16.256C42.4024 15.976 42.2184 15.636 42.0904 15.236C41.9704 14.836 41.9104 14.392 41.9104 13.904C41.9104 13.416 41.9744 12.972 42.1024 12.572C42.2304 12.172 42.4144 11.832 42.6544 11.552C42.8944 11.264 43.1864 11.044 43.5304 10.892C43.8744 10.74 44.2664 10.664 44.7064 10.664C45.3064 10.664 45.7944 10.796 46.1704 11.06C46.5464 11.324 46.8224 11.668 46.9984 12.092L46.2304 12.5C46.1184 12.18 45.9304 11.932 45.6664 11.756C45.4104 11.58 45.0904 11.492 44.7064 11.492C44.4264 11.492 44.1744 11.54 43.9504 11.636C43.7344 11.724 43.5504 11.852 43.3984 12.02C43.2464 12.188 43.1304 12.388 43.0504 12.62C42.9784 12.852 42.9424 13.104 42.9424 13.376V14.432C42.9424 14.704 42.9784 14.956 43.0504 15.188C43.1304 15.42 43.2464 15.62 43.3984 15.788C43.5504 15.956 43.7384 16.088 43.9624 16.184C44.1864 16.272 44.4424 16.316 44.7304 16.316C45.1464 16.316 45.4904 16.22 45.7624 16.028C46.0344 15.836 46.2504 15.572 46.4104 15.236L47.0944 15.704C46.9104 16.12 46.6224 16.464 46.2304 16.736C45.8464 17.008 45.3424 17.144 44.7184 17.144Z" fill="#18284E"/>
<path d="M51.9137 17.144C51.4657 17.144 51.0657 17.068 50.7137 16.916C50.3697 16.756 50.0777 16.536 49.8377 16.256C49.5977 15.976 49.4137 15.636 49.2857 15.236C49.1657 14.836 49.1057 14.392 49.1057 13.904C49.1057 13.416 49.1697 12.972 49.2977 12.572C49.4257 12.172 49.6097 11.832 49.8497 11.552C50.0897 11.264 50.3817 11.044 50.7257 10.892C51.0697 10.74 51.4617 10.664 51.9017 10.664C52.5017 10.664 52.9897 10.796 53.3657 11.06C53.7417 11.324 54.0177 11.668 54.1937 12.092L53.4257 12.5C53.3137 12.18 53.1257 11.932 52.8617 11.756C52.6057 11.58 52.2857 11.492 51.9017 11.492C51.6217 11.492 51.3697 11.54 51.1457 11.636C50.9297 11.724 50.7457 11.852 50.5937 12.02C50.4417 12.188 50.3257 12.388 50.2457 12.62C50.1737 12.852 50.1377 13.104 50.1377 13.376V14.432C50.1377 14.704 50.1737 14.956 50.2457 15.188C50.3257 15.42 50.4417 15.62 50.5937 15.788C50.7457 15.956 50.9337 16.088 51.1577 16.184C51.3817 16.272 51.6377 16.316 51.9257 16.316C52.3417 16.316 52.6857 16.22 52.9577 16.028C53.2297 15.836 53.4457 15.572 53.6057 15.236L54.2897 15.704C54.1057 16.12 53.8177 16.464 53.4257 16.736C53.0417 17.008 52.5377 17.144 51.9137 17.144Z" fill="#18284E"/>
<path d="M59.001 17.144C58.553 17.144 58.149 17.068 57.789 16.916C57.437 16.764 57.133 16.548 56.877 16.268C56.629 15.98 56.437 15.64 56.301 15.248C56.165 14.848 56.097 14.404 56.097 13.916C56.097 13.42 56.165 12.972 56.301 12.572C56.445 12.172 56.641 11.832 56.889 11.552C57.137 11.264 57.433 11.044 57.777 10.892C58.129 10.74 58.517 10.664 58.941 10.664C59.357 10.664 59.733 10.74 60.069 10.892C60.413 11.044 60.705 11.256 60.945 11.528C61.185 11.792 61.369 12.108 61.497 12.476C61.625 12.844 61.689 13.248 61.689 13.688V14.144H57.105V14.432C57.105 14.704 57.149 14.956 57.237 15.188C57.325 15.42 57.449 15.62 57.609 15.788C57.777 15.956 57.977 16.088 58.209 16.184C58.449 16.272 58.713 16.316 59.001 16.316C59.417 16.316 59.777 16.22 60.081 16.028C60.385 15.836 60.617 15.572 60.777 15.236L61.485 15.716C61.301 16.132 60.993 16.476 60.561 16.748C60.137 17.012 59.617 17.144 59.001 17.144ZM58.941 11.456C58.677 11.456 58.433 11.504 58.209 11.6C57.985 11.696 57.789 11.828 57.621 11.996C57.461 12.164 57.333 12.364 57.237 12.596C57.149 12.82 57.105 13.068 57.105 13.34V13.424H60.657V13.292C60.657 13.02 60.613 12.772 60.525 12.548C60.445 12.324 60.329 12.132 60.177 11.972C60.033 11.804 59.853 11.676 59.637 11.588C59.429 11.5 59.197 11.456 58.941 11.456Z" fill="#18284E"/>
<path d="M63.6283 10.808H64.5883V11.816H64.6363C65.0363 11.048 65.6723 10.664 66.5443 10.664C67.3043 10.664 67.8963 10.948 68.3203 11.516C68.7523 12.084 68.9683 12.88 68.9683 13.904C68.9683 14.928 68.7523 15.724 68.3203 16.292C67.8963 16.86 67.3043 17.144 66.5443 17.144C65.6723 17.144 65.0363 16.76 64.6363 15.992H64.5883V19.4H63.6283V10.808ZM66.1723 16.292C66.7323 16.292 67.1643 16.124 67.4683 15.788C67.7803 15.444 67.9363 14.992 67.9363 14.432V13.376C67.9363 12.816 67.7803 12.368 67.4683 12.032C67.1643 11.688 66.7323 11.516 66.1723 11.516C65.9563 11.516 65.7523 11.544 65.5603 11.6C65.3683 11.656 65.2003 11.74 65.0563 11.852C64.9123 11.956 64.7963 12.088 64.7083 12.248C64.6283 12.4 64.5883 12.58 64.5883 12.788V15.02C64.5883 15.228 64.6283 15.412 64.7083 15.572C64.7963 15.724 64.9123 15.856 65.0563 15.968C65.2003 16.072 65.3683 16.152 65.5603 16.208C65.7523 16.264 65.9563 16.292 66.1723 16.292Z" fill="#18284E"/>
<path d="M73.5836 17C73.1116 17 72.7636 16.868 72.5396 16.604C72.3236 16.34 72.2156 16 72.2156 15.584V11.624H70.1516V10.808H71.6876C71.8956 10.808 72.0396 10.768 72.1196 10.688C72.2076 10.6 72.2516 10.452 72.2516 10.244V8.62402H73.1756V10.808H75.9956V11.624H73.1756V16.184H75.9956V17H73.5836Z" fill="#18284E"/>
</g>
<g id="FREE-KASSA">
<path d="M13.3593 37.9999V26.8319H20.6553V28.5599H15.4553V31.4719H20.1433V33.1999H15.4553V37.9999H13.3593Z" fill="#FB6F78"/>
<path d="M25.001 37.9999H22.905V26.8319H27.145C28.233 26.8319 29.065 27.1412 29.641 27.7599C30.217 28.3786 30.505 29.2212 30.505 30.2879C30.505 31.1092 30.313 31.8026 29.929 32.3679C29.5557 32.9226 29.017 33.2746 28.313 33.4239L30.697 37.9999H28.393L26.265 33.6639H25.001V37.9999ZM26.713 32.0319C27.2783 32.0319 27.6837 31.9199 27.929 31.6959C28.1743 31.4612 28.297 31.0932 28.297 30.5919V29.9839C28.297 29.4826 28.1743 29.1199 27.929 28.8959C27.6837 28.6612 27.2783 28.5439 26.713 28.5439H25.001V32.0319H26.713Z" fill="#FB6F78"/>
<path d="M32.5468 37.9999V26.8319H39.6028V28.5599H34.6428V31.4719H39.4268V33.1999H34.6428V36.2719H39.6028V37.9999H32.5468Z" fill="#FB6F78"/>
<path d="M42.1405 37.9999V26.8319H49.1965V28.5599H44.2365V31.4719H49.0205V33.1999H44.2365V36.2719H49.1965V37.9999H42.1405Z" fill="#FB6F78"/>
<path d="M52.7263 34.1279V32.1279H57.6863V34.1279H52.7263Z" fill="#FB6F78"/>
<path d="M64.432 33.1039L63.264 34.6399V37.9999H61.168V26.8319H63.264V31.8559H63.36L64.656 29.9999L67.008 26.8319H69.376L65.872 31.5359L69.536 37.9999H67.168L64.432 33.1039Z" fill="#FB6F78"/>
<path d="M76.7778 37.9999L75.9938 35.1679H72.6818L71.9138 37.9999H69.8018L72.9378 26.8319H75.8498L79.0017 37.9999H76.7778ZM74.4098 28.8959H74.2818L73.0498 33.4559H75.6418L74.4098 28.8959Z" fill="#FB6F78"/>
<path d="M83.8595 38.1919C82.8995 38.1919 82.0782 38.0266 81.3955 37.6959C80.7235 37.3652 80.1742 36.9279 79.7475 36.3839L81.0115 35.0719C81.4275 35.5519 81.8755 35.9092 82.3555 36.1439C82.8462 36.3679 83.3688 36.4799 83.9235 36.4799C84.5635 36.4799 85.0542 36.3359 85.3955 36.0479C85.7368 35.7599 85.9075 35.3439 85.9075 34.7999C85.9075 34.3519 85.7795 34.0159 85.5235 33.7919C85.2675 33.5572 84.8355 33.3919 84.2275 33.2959L83.0435 33.1039C82.0088 32.9226 81.2728 32.5492 80.8355 31.9839C80.3982 31.4079 80.1795 30.7306 80.1795 29.9519C80.1795 28.8852 80.5262 28.0692 81.2195 27.5039C81.9128 26.9279 82.8728 26.6399 84.0995 26.6399C84.9742 26.6399 85.7262 26.7786 86.3555 27.0559C86.9955 27.3332 87.5075 27.7119 87.8915 28.1919L86.6595 29.5039C86.3608 29.1519 86.0035 28.8746 85.5875 28.6719C85.1715 28.4586 84.6808 28.3519 84.1155 28.3519C82.8995 28.3519 82.2915 28.8532 82.2915 29.8559C82.2915 30.2826 82.4195 30.6079 82.6755 30.8319C82.9315 31.0559 83.3688 31.2212 83.9875 31.3279L85.1555 31.5359C86.1262 31.7172 86.8462 32.0746 87.3155 32.6079C87.7848 33.1412 88.0195 33.8239 88.0195 34.6559C88.0195 35.1786 87.9288 35.6586 87.7475 36.0959C87.5662 36.5226 87.2995 36.8959 86.9475 37.2159C86.5955 37.5252 86.1582 37.7652 85.6355 37.9359C85.1235 38.1066 84.5315 38.1919 83.8595 38.1919Z" fill="#FB6F78"/>
<path d="M93.4532 38.1919C92.4932 38.1919 91.6719 38.0266 90.9893 37.6959C90.3173 37.3652 89.7679 36.9279 89.3412 36.3839L90.6052 35.0719C91.0212 35.5519 91.4692 35.9092 91.9492 36.1439C92.4399 36.3679 92.9626 36.4799 93.5173 36.4799C94.1573 36.4799 94.6479 36.3359 94.9893 36.0479C95.3306 35.7599 95.5013 35.3439 95.5013 34.7999C95.5013 34.3519 95.3732 34.0159 95.1172 33.7919C94.8612 33.5572 94.4293 33.3919 93.8213 33.2959L92.6373 33.1039C91.6026 32.9226 90.8666 32.5492 90.4293 31.9839C89.9919 31.4079 89.7732 30.7306 89.7732 29.9519C89.7732 28.8852 90.1199 28.0692 90.8132 27.5039C91.5066 26.9279 92.4666 26.6399 93.6933 26.6399C94.5679 26.6399 95.3199 26.7786 95.9492 27.0559C96.5892 27.3332 97.1013 27.7119 97.4853 28.1919L96.2533 29.5039C95.9546 29.1519 95.5973 28.8746 95.1813 28.6719C94.7653 28.4586 94.2746 28.3519 93.7093 28.3519C92.4933 28.3519 91.8853 28.8532 91.8853 29.8559C91.8853 30.2826 92.0132 30.6079 92.2692 30.8319C92.5252 31.0559 92.9626 31.2212 93.5813 31.3279L94.7493 31.5359C95.7199 31.7172 96.4399 32.0746 96.9092 32.6079C97.3786 33.1412 97.6133 33.8239 97.6133 34.6559C97.6133 35.1786 97.5226 35.6586 97.3412 36.0959C97.1599 36.5226 96.8933 36.8959 96.5413 37.2159C96.1893 37.5252 95.7519 37.7652 95.2292 37.9359C94.7172 38.1066 94.1252 38.1919 93.4532 38.1919Z" fill="#FB6F78"/>
<path d="M105.559 37.9999L104.775 35.1679H101.463L100.695 37.9999H98.583L101.719 26.8319H104.631L107.783 37.9999H105.559ZM103.191 28.8959H103.063L101.831 33.4559H104.423L103.191 28.8959Z" fill="#FB6F78"/>
</g>
</g>
</svg>
