<svg width="16" height="16" viewBox="0 0 16 16" fill="none" xmlns="http://www.w3.org/2000/svg">
<path fill-rule="evenodd" clip-rule="evenodd" d="M8 13.8333C4.77834 13.8333 2.16667 11.2217 2.16667 8C2.16667 4.77834 4.77834 2.16667 8 2.16667C9.33066 2.16667 10.591 2.6125 11.6129 3.41987C11.9741 3.70518 12.4981 3.64373 12.7834 3.2826C13.0688 2.92147 13.0073 2.39742 12.6462 2.11211C11.3326 1.07431 9.70901 0.5 8 0.5C3.85786 0.5 0.5 3.85786 0.5 8C0.5 12.1421 3.85786 15.5 8 15.5C12.1421 15.5 15.5 12.1421 15.5 8C15.5 7.53976 15.1269 7.16667 14.6667 7.16667H8.83086C8.37271 7.16667 8 7.53976 8 8C8 8.46345 8.37199 8.83333 8.83086 8.83333H13.7743C13.3699 11.6602 10.9387 13.8333 8 13.8333Z" fill="white"/>
</svg>
