<svg width="417" height="364" viewBox="0 0 417 364" fill="none" xmlns="http://www.w3.org/2000/svg">
<path d="M415.175 51.5259H307.5V128.658H415.175V51.5259Z" fill="white"/>
<path d="M415.34 129.323H307.665C307.31 129.323 307 129.013 307 128.658V51.5263C307 51.1716 307.31 50.8613 307.665 50.8613H415.34C415.694 50.8613 416.004 51.1716 416.004 51.5263V128.658C416.004 129.057 415.694 129.323 415.34 129.323ZM308.33 127.993H414.675V52.1912H308.33V127.993Z" fill="#FB6F78"/>
<path d="M319 93.3732C319 99.4937 323.962 104.455 330.082 104.455C336.203 104.455 341.164 99.4937 341.164 93.3732C341.164 87.2527 336.203 82.291 330.082 82.291C323.962 82.291 319 87.2527 319 93.3732Z" fill="#FB6F78"/>
<path d="M350.03 93.3722C350.03 99.4928 354.992 104.454 361.112 104.454C367.233 104.454 372.194 99.4928 372.194 93.3722C372.194 87.2517 367.233 82.29 361.112 82.29C354.992 82.29 350.03 87.2517 350.03 93.3722Z" fill="#FB6F78"/>
<path d="M381.503 93.3722C381.503 99.4928 386.465 104.454 392.586 104.454C398.706 104.454 403.668 99.4928 403.668 93.3722C403.668 87.2517 398.706 82.29 392.586 82.29C386.465 82.29 381.503 87.2517 381.503 93.3722Z" fill="#FB6F78"/>
<path d="M122.692 22.3146C124.202 13.0106 117.883 4.24406 108.579 2.73408C99.2752 1.2241 90.5087 7.54242 88.9987 16.8464C87.4887 26.1505 93.807 34.917 103.111 36.4269C112.415 37.9369 121.182 31.6186 122.692 22.3146Z" fill="#FB6F78"/>
<path d="M364.413 52.1908C364.059 52.1908 363.748 51.8805 363.748 51.5259V20.2298H122.61C122.256 20.2298 121.945 19.9195 121.945 19.5648C121.945 19.2102 122.256 18.8999 122.61 18.8999H364.413C364.768 18.8999 365.078 19.2102 365.078 19.5648V51.5259C365.078 51.8805 364.812 52.1908 364.413 52.1908Z" fill="#FB6F78"/>
<path d="M399.477 284.917H331.995C331.64 284.917 331.33 284.607 331.33 284.252C331.33 283.897 331.64 283.587 331.995 283.587H398.812V128.658C398.812 128.303 399.123 127.993 399.477 127.993C399.832 127.993 400.142 128.303 400.142 128.658V284.252C400.142 284.651 399.832 284.917 399.477 284.917Z" fill="#FB6F78"/>
<path d="M331.995 207.342H122.098V347.864H331.995V207.342Z" fill="white"/>
<path d="M331.995 348.529H122.098C121.743 348.529 121.433 348.219 121.433 347.864V207.342C121.433 206.987 121.743 206.677 122.098 206.677H331.995C332.349 206.677 332.66 206.987 332.66 207.342V347.864C332.66 348.219 332.349 348.529 331.995 348.529ZM122.763 347.199H331.33V208.007H122.763V347.199Z" fill="#FB6F78"/>
<path d="M331.773 230.481H122.098C121.743 230.481 121.433 230.171 121.433 229.816C121.433 229.462 121.743 229.151 122.098 229.151H331.773C332.128 229.151 332.438 229.462 332.438 229.816C332.438 230.171 332.172 230.481 331.773 230.481Z" fill="#FB6F78"/>
<path d="M151.399 225.295C147.764 225.295 144.794 222.325 144.794 218.69C144.794 215.055 147.764 212.085 151.399 212.085C155.034 212.085 158.004 215.055 158.004 218.69C158.004 222.325 155.034 225.295 151.399 225.295ZM151.399 213.415C148.518 213.415 146.124 215.764 146.124 218.69C146.124 221.616 148.473 223.965 151.399 223.965C154.28 223.965 156.674 221.616 156.674 218.69C156.674 215.764 154.325 213.415 151.399 213.415Z" fill="#FB6F78"/>
<path d="M171.037 225.295C167.402 225.295 164.432 222.325 164.432 218.69C164.432 215.055 167.402 212.085 171.037 212.085C174.672 212.085 177.642 215.055 177.642 218.69C177.642 222.325 174.672 225.295 171.037 225.295ZM171.037 213.415C168.155 213.415 165.762 215.764 165.762 218.69C165.762 221.616 168.111 223.965 171.037 223.965C173.918 223.965 176.312 221.616 176.312 218.69C176.312 215.764 173.918 213.415 171.037 213.415Z" fill="#FB6F78"/>
<path d="M331.995 348.529H235.048C234.915 348.529 234.782 348.484 234.649 348.396L218.735 337.269C209.514 330.842 200.338 324.37 191.118 317.942C190.896 317.765 190.807 317.499 190.852 317.233C190.94 316.967 191.162 316.745 191.428 316.745L245.465 310.495C237.929 294.359 230.437 278.223 222.901 262.088C222.769 261.822 222.857 261.511 223.079 261.29C223.3 261.068 223.655 261.068 223.877 261.245C235.978 269.801 248.08 278.312 260.182 286.867L270.023 293.783L277.071 242.051C277.116 241.785 277.337 241.519 277.603 241.475C277.869 241.43 278.179 241.563 278.312 241.829L301.053 285.626L331.418 240.898C331.596 240.677 331.906 240.544 332.172 240.633C332.438 240.721 332.66 240.987 332.66 241.253V347.775C332.66 348.218 332.349 348.529 331.995 348.529ZM235.269 347.199H331.33V243.47L301.541 287.311C301.408 287.488 301.186 287.621 300.965 287.621C300.743 287.621 300.521 287.488 300.433 287.266L278.135 244.312L271.22 295.068C271.176 295.29 271.043 295.512 270.821 295.6C270.599 295.689 270.378 295.689 270.156 295.556L259.428 287.976C247.992 279.908 236.555 271.884 225.162 263.816C232.477 279.465 239.791 295.113 247.061 310.761C247.149 310.938 247.149 311.16 247.061 311.381C246.972 311.559 246.75 311.692 246.573 311.736L193.379 317.853C202.111 323.971 210.844 330.088 219.577 336.161L235.269 347.199Z" fill="#FB6F78"/>
<path d="M131.762 225.295C128.127 225.295 125.157 222.325 125.157 218.69C125.157 215.055 128.127 212.085 131.762 212.085C135.397 212.085 138.367 215.055 138.367 218.69C138.367 222.325 135.397 225.295 131.762 225.295ZM131.762 213.415C128.88 213.415 126.486 215.764 126.486 218.69C126.486 221.616 128.836 223.965 131.762 223.965C134.687 223.965 137.037 221.616 137.037 218.69C137.037 215.764 134.687 213.415 131.762 213.415Z" fill="#FB6F78"/>
<path d="M166.117 154.369C165.984 154.414 165.851 154.458 165.673 154.458C165.23 154.458 164.831 154.192 164.654 153.793L161.772 146.833C162.171 145.902 162.57 144.972 163.014 143.996L166.737 152.951C166.959 153.483 166.693 154.148 166.117 154.369Z" fill="#18284E"/>
<path d="M189.566 150.557C189.478 150.557 189.389 150.557 189.3 150.512L178.085 147.631C177.509 147.498 177.154 146.877 177.287 146.301C177.42 145.725 178.041 145.37 178.617 145.503L189.832 148.385C190.409 148.518 190.763 149.138 190.63 149.714C190.497 150.202 190.054 150.557 189.566 150.557Z" fill="#18284E"/>
<path d="M211.82 95.2344C211.465 95.2344 211.11 95.0571 210.889 94.7468C210.578 94.2148 210.711 93.5499 211.243 93.1953L220.996 86.9449C221.528 86.6346 222.192 86.7676 222.547 87.2995C222.857 87.8315 222.724 88.4964 222.192 88.851L212.44 95.1014C212.218 95.19 211.997 95.2344 211.82 95.2344Z" fill="#18284E"/>
<path d="M207.653 143.73C207.342 144.395 206.988 145.104 206.677 145.769L203.441 144.927C202.865 144.794 202.51 144.173 202.643 143.597C202.821 143.021 203.397 142.666 203.973 142.799L207.653 143.73Z" fill="#18284E"/>
<path d="M223.256 111.459C222.946 112.124 222.591 112.833 222.281 113.498L213.415 111.193C212.839 111.06 212.485 110.439 212.618 109.863C212.795 109.287 213.371 108.932 213.947 109.065L223.256 111.459Z" fill="#18284E"/>
<path d="M194.62 134.909C194.265 134.909 193.911 134.731 193.689 134.421C193.334 133.934 193.467 133.224 193.955 132.87L203.486 126.309C203.973 125.954 204.683 126.087 205.037 126.575C205.392 127.063 205.259 127.772 204.771 128.126L195.241 134.687C195.063 134.864 194.842 134.909 194.62 134.909Z" fill="#18284E"/>
<path d="M237.885 74.0453C235.668 76.3061 233.452 78.6112 231.236 80.8719C231.103 81.0049 230.925 81.0936 230.748 81.1379C230.393 81.2266 229.95 81.1379 229.684 80.8719C229.241 80.4287 229.241 79.7194 229.684 79.3204L235.624 73.3804C235.934 73.4247 237.619 73.9123 237.885 74.0453Z" fill="#18284E"/>
<path d="M194.842 111.237C194.265 111.237 193.778 110.749 193.733 110.173L193.334 98.6032C193.334 97.9826 193.778 97.495 194.398 97.4507C195.019 97.4507 195.506 97.894 195.551 98.5146L195.95 110.084C195.95 110.705 195.506 111.237 194.842 111.237C194.886 111.237 194.842 111.237 194.842 111.237Z" fill="#18284E"/>
<path d="M178.351 125.689C178.263 125.689 178.174 125.689 178.13 125.644C177.553 125.511 177.154 124.935 177.287 124.314L179.77 113.011C179.903 112.434 180.479 112.035 181.1 112.168C181.676 112.301 182.075 112.878 181.942 113.498L179.459 124.802C179.282 125.334 178.839 125.689 178.351 125.689Z" fill="#18284E"/>
<path d="M198.964 85.571C198.743 85.7927 198.477 85.8813 198.211 85.8813C197.9 85.8813 197.634 85.7483 197.413 85.5267L192.005 79.6753C192.359 78.966 192.67 78.2568 193.024 77.5032L199.009 83.9752C199.452 84.4628 199.408 85.1721 198.964 85.571Z" fill="#18284E"/>
<path d="M187.306 169.175L183.05 174.494C182.43 174.051 181.853 173.652 181.233 173.209L185.577 167.801C185.976 167.313 186.641 167.269 187.128 167.623C187.616 168.022 187.66 168.687 187.306 169.175Z" fill="#18284E"/>
<path d="M242.717 47.0936C239.658 44.1679 234.782 44.3008 231.856 47.4039C231.856 47.4039 228.798 43.7246 235.004 31.9331C240.678 21.2055 224.675 21.0282 221.661 15.9304C219.577 16.817 217.671 17.9252 216.031 19.1221C214.79 20.0087 211.997 21.9148 209.337 25.2838C208.539 26.3034 207.653 27.5446 206.811 28.9631C202.067 36.8093 197.768 49.3987 204.594 56.9789C205.968 58.4861 207.697 59.7273 209.736 60.6582L207.697 68.327C206.101 74.2671 209.692 80.4288 215.632 82.0246C221.572 83.6205 227.734 80.0298 229.33 74.0898L233.098 59.9046C233.231 59.3726 233.319 58.885 233.408 58.3531C235.27 57.3778 236.998 56.2696 238.55 55.0284C239.392 54.3191 240.279 53.5212 241.121 52.679C242.185 51.6151 243.205 50.4182 244.135 49.1327C243.825 48.3348 243.338 47.6698 242.717 47.0936Z" fill="#FFDDCA"/>
<path d="M209.293 42.9707C209.249 42.9707 209.204 42.9707 209.16 42.9264L204.417 39.2914C204.372 39.2471 204.328 39.1584 204.328 39.1141C204.328 39.0698 204.372 38.9811 204.417 38.9368L213.903 32.5535C213.992 32.4648 214.125 32.5091 214.213 32.5978C214.302 32.6864 214.258 32.8194 214.169 32.9081L204.949 39.1141L209.47 42.5274C209.559 42.6161 209.603 42.7491 209.515 42.8377C209.426 42.9264 209.382 42.9707 209.293 42.9707Z" fill="#18284E"/>
<path d="M214.791 27.7496C215.02 27.2353 213.575 26.0911 211.563 25.1939C209.55 24.2966 207.733 23.9862 207.504 24.5005C207.274 25.0147 208.72 26.159 210.732 27.0562C212.745 27.9534 214.562 28.2639 214.791 27.7496Z" fill="#18284E"/>
<path d="M227.302 33.3223C227.531 32.808 225.886 31.5749 223.628 30.568C221.37 29.5611 219.353 29.1617 219.124 29.676C218.895 30.1903 220.539 31.4234 222.798 32.4303C225.056 33.4372 227.073 33.8365 227.302 33.3223Z" fill="#18284E"/>
<path d="M213.504 60.924C212.174 60.924 210.845 60.791 209.515 60.5693C209.382 60.5693 209.293 60.4364 209.337 60.3034C209.382 60.1704 209.47 60.0817 209.603 60.1261C210.977 60.392 212.352 60.4807 213.726 60.4807C216.607 60.4364 219.444 59.8601 222.193 58.7075C222.326 58.6632 222.414 58.7075 222.503 58.8405C222.592 58.9735 222.503 59.0622 222.37 59.1508C219.577 60.3034 216.696 60.924 213.726 60.924C213.637 60.924 213.593 60.924 213.504 60.924Z" fill="#18284E"/>
<path d="M245.022 51.6148C244.8 49.9303 244.002 48.3345 242.717 47.0933C239.658 44.1676 234.782 44.3006 231.856 47.4036C228.931 50.4623 229.064 55.3384 232.167 58.2198C235.225 61.1455 240.101 61.0125 242.983 57.9095C244.667 56.1807 245.332 53.8313 245.022 51.6148Z" fill="#FFDDCA"/>
<path d="M233.63 54.851C233.541 54.851 233.452 54.7624 233.408 54.6737C233.364 54.5407 233.452 54.4521 233.585 54.4078C234.383 54.2304 235.048 53.6542 235.27 52.9006C235.536 52.147 235.358 51.2604 234.782 50.6841C234.738 50.6398 234.694 50.5512 234.738 50.4625C234.738 50.3738 234.827 50.3295 234.871 50.3295L241.254 48.2017C241.387 48.1574 241.476 48.2461 241.52 48.3347C241.565 48.4677 241.476 48.5564 241.387 48.6007L235.314 50.6398C235.802 51.3491 235.935 52.2357 235.669 53.0336C235.403 53.9645 234.605 54.6737 233.63 54.851C233.674 54.851 233.63 54.851 233.63 54.851Z" fill="#18284E"/>
<path d="M250.519 19.2991C250.519 7.59633 237.486 10.3447 237.486 10.3447C233.275 2.58717 223.123 6.48811 221.439 12.4725C220.774 12.3838 214.701 11.7632 210.179 16.3734C205.17 21.5599 206.722 28.4752 206.855 28.9185C207.697 27.5443 208.539 26.3031 209.381 25.2392C212.041 21.8702 214.834 19.9641 216.075 19.0775C217.715 17.8806 219.621 16.7724 221.705 15.8858C224.719 20.9836 240.722 21.1609 235.048 31.8885C228.842 43.68 231.9 47.3593 231.9 47.3593C234.826 44.3006 239.658 44.1676 242.761 47.049C243.382 47.6252 243.869 48.2902 244.268 48.9994C244.712 49.7973 244.978 50.6839 245.11 51.5705C257.212 47.2706 253.4 35.7451 253.4 35.7451C260.67 25.1505 250.519 19.2991 250.519 19.2991Z" fill="#18284E"/>
<path d="M210.49 31.7556C211.151 31.7556 211.687 31.2197 211.687 30.5587C211.687 29.8977 211.151 29.3618 210.49 29.3618C209.829 29.3618 209.293 29.8977 209.293 30.5587C209.293 31.2197 209.829 31.7556 210.49 31.7556Z" fill="#18284E"/>
<path d="M220.021 36.4543C220.682 36.4543 221.218 35.9184 221.218 35.2574C221.218 34.5964 220.682 34.0605 220.021 34.0605C219.36 34.0605 218.824 34.5964 218.824 35.2574C218.824 35.9184 219.36 36.4543 220.021 36.4543Z" fill="#18284E"/>
<path d="M212.485 50.1519C209.958 50.1519 208.008 47.9798 208.008 47.9798C207.919 47.8912 207.919 47.7582 208.008 47.6695C208.096 47.5809 208.229 47.5809 208.318 47.6695C208.318 47.6695 209.16 48.6004 210.401 49.221C212.041 50.0189 213.637 49.8416 215.1 48.7777C215.189 48.6891 215.322 48.7334 215.41 48.8221C215.499 48.9107 215.455 49.0437 215.366 49.1324C214.391 49.886 213.371 50.1519 212.485 50.1519Z" fill="#18284E"/>
<path d="M62.9634 307.348C62.6088 310.717 62.2541 314.086 61.8995 317.499C61.8108 318.164 61.7665 318.829 61.6779 319.494C60.8356 319.272 59.9047 319.006 58.9295 318.74C58.7965 318.696 58.6635 318.652 58.4862 318.607C57.4223 318.341 56.3141 318.031 55.1615 317.721C55.0285 317.676 54.8512 317.632 54.7182 317.588C53.6543 317.277 52.5461 317.012 51.3936 316.701C51.2606 316.657 51.0833 316.613 50.9503 316.568C50.1967 316.347 49.4431 316.169 48.6895 315.948C48.5122 315.903 48.3349 315.859 48.1576 315.815C46.7834 315.46 45.4092 315.105 44.1237 314.751C43.9907 314.706 43.8133 314.662 43.6804 314.618C42.7051 314.352 41.7742 314.13 40.8876 313.909C40.7547 313.864 40.6217 313.82 40.4444 313.82C39.2918 313.51 38.1836 313.244 37.164 312.978C37.031 312.933 36.8537 312.889 36.7207 312.889C36.3218 312.8 35.9228 312.667 35.5239 312.579C35.9228 310.717 37.2527 303.624 38.2279 298.438C38.8485 298.659 39.4248 298.881 40.0454 299.103C40.2227 299.147 40.3557 299.236 40.533 299.28C41.8629 299.723 43.1484 300.211 44.4783 300.699C44.6113 300.743 44.7443 300.787 44.9216 300.832C45.5422 301.053 46.1184 301.275 46.739 301.496C46.9607 301.585 47.1823 301.674 47.404 301.718C47.537 301.762 47.7143 301.807 47.8473 301.895C48.9555 302.294 50.0637 302.693 51.1719 303.092C51.3049 303.137 51.4822 303.181 51.6152 303.27C52.6348 303.624 53.6543 304.023 54.7182 304.378C54.8512 304.422 55.0285 304.466 55.1615 304.555C56.0924 304.91 57.0233 305.22 57.9542 305.575C58.0872 305.619 58.2202 305.663 58.3975 305.708C59.4614 306.107 60.5696 306.506 61.6335 306.86C61.7665 306.905 61.8995 306.949 62.0768 306.993C62.3871 307.171 62.6974 307.259 62.9634 307.348Z" fill="white"/>
<path d="M169.353 305.974L166.87 306.993L166.427 307.17L163.413 308.412L162.969 308.589L160.531 309.564L160.132 309.741L157.916 310.672L157.473 310.85L155.034 311.825L154.636 312.002L149.937 313.908L149.538 314.086L146.568 315.327L146.169 315.504L144.927 316.036C144.174 314.751 143.42 313.509 142.711 312.224C143.553 311.559 144.351 310.85 145.193 310.185C145.326 310.096 145.415 309.963 145.548 309.875C146.124 309.387 146.745 308.899 147.321 308.412C147.454 308.323 147.543 308.234 147.676 308.146C148.341 307.614 148.961 307.082 149.626 306.55C149.759 306.461 149.892 306.328 149.981 306.24C150.912 305.486 151.798 304.732 152.729 303.979C152.862 303.89 152.995 303.757 153.084 303.668C154.148 302.826 155.167 301.94 156.231 301.097C156.364 301.009 156.453 300.92 156.586 300.831C157.34 300.211 158.093 299.59 158.847 298.97C158.98 298.881 159.113 298.748 159.246 298.659C160.265 297.817 161.285 296.975 162.304 296.133C162.437 296.044 162.57 295.911 162.703 295.778C162.925 295.601 163.147 295.379 163.413 295.202C165.319 298.659 167.358 302.294 169.353 305.974Z" fill="white"/>
<path d="M61.7222 319.494C61.2789 323.661 60.8356 327.828 60.3923 331.95C55.6935 334.3 50.8173 336.649 45.7638 338.954C37.9619 342.5 30.426 345.604 23.1118 348.441L1.08039 357.661C0.814416 356.597 0.548443 355.267 0.371128 353.849C0.371128 353.849 0.238141 352.563 0.193812 351.411C0.149484 348.396 1.78965 344.096 2.76488 342.412C6.84313 335.186 25.5942 326.32 33.3074 316.169C34.061 315.15 34.8146 314.041 35.5239 312.712C37.2527 310.096 40.4887 308.944 43.4587 309.786C46.2514 310.584 48.2906 313.111 48.5122 316.036C52.9451 317.189 57.3336 318.341 61.7222 319.494Z" fill="#18284E"/>
<path d="M0.238267 351.942C0.14961 351.942 0.0609521 351.898 0.0166233 351.809C-0.0277055 351.677 0.0166233 351.588 0.14961 351.499L60.8801 326.365C61.013 326.32 61.1017 326.365 61.1904 326.498C61.279 326.631 61.1904 326.719 61.0574 326.808L0.326925 351.942C0.282596 351.942 0.282596 351.942 0.238267 351.942Z" fill="#D5E0EA"/>
<path d="M31.5344 330.709C31.4901 330.709 31.4457 330.709 31.4014 330.665L24.5748 326.276C24.4861 326.232 24.4418 326.055 24.5304 325.966C24.5748 325.877 24.7521 325.833 24.8407 325.877L31.6674 330.266C31.756 330.31 31.8004 330.487 31.7117 330.576C31.7117 330.709 31.623 330.709 31.5344 330.709Z" fill="#D5E0EA"/>
<path d="M34.5488 327.207C34.5044 327.207 34.5044 327.207 34.4601 327.207L27.0572 324.06C26.9242 324.015 26.8799 323.882 26.9242 323.749C26.9685 323.616 27.1015 323.572 27.2345 323.616L34.6374 326.764C34.7704 326.808 34.8147 326.941 34.7704 327.074C34.7261 327.118 34.6374 327.207 34.5488 327.207Z" fill="#D5E0EA"/>
<path d="M176.49 318.962C173.83 323.661 170.949 328.537 167.801 333.457C162.925 341.171 157.96 348.263 153.128 354.735C144.928 357.794 136.727 360.897 128.526 364C128.304 362.759 128.127 360.941 128.349 358.769C128.703 355.311 129.944 352.74 130.698 351.366C135.22 342.811 139.519 340.506 143.199 332.748C144.351 330.266 146.124 326.32 145.947 321.356C145.858 319.405 145.504 317.588 144.928 315.903C145.282 313.731 146.834 311.914 148.873 311.249C151.665 310.318 153.971 311.958 154.192 312.135C159.29 310.052 164.388 307.968 169.441 305.929C169.486 306.018 169.663 306.372 169.752 306.461C171.968 310.672 174.229 314.839 176.49 318.962Z" fill="#18284E"/>
<path d="M128.348 359.035C128.26 359.035 128.171 358.991 128.127 358.902C128.083 358.769 128.127 358.68 128.26 358.636L149.36 350.524L173.786 314.219C173.874 314.13 174.007 314.086 174.096 314.174C174.184 314.263 174.229 314.396 174.14 314.485L149.671 350.834C149.626 350.879 149.626 350.923 149.582 350.923L128.437 359.079C128.393 359.035 128.348 359.035 128.348 359.035Z" fill="#D5E0EA"/>
<path d="M144.085 333.191C143.952 333.191 143.864 333.103 143.864 332.97C143.864 332.837 143.952 332.748 144.085 332.748L152.995 332.482C153.084 332.482 153.217 332.571 153.217 332.704C153.217 332.837 153.128 332.925 152.995 332.925L144.085 333.191Z" fill="#D5E0EA"/>
<path d="M145.326 330.532C145.238 330.532 145.149 330.443 145.105 330.354C145.06 330.221 145.149 330.133 145.282 330.088L153.971 328.094C154.104 328.049 154.192 328.138 154.237 328.271C154.281 328.404 154.192 328.493 154.059 328.537L145.371 330.532H145.326Z" fill="#D5E0EA"/>
<path d="M192.935 206.677C187.705 206.677 182.474 206.677 177.243 206.633C181.632 197.59 185.976 188.547 190.364 179.504C181.72 173.785 172.943 167.446 164.122 160.487C162.038 158.846 160.043 157.251 158.004 155.61C153.571 156.497 147.365 157.827 140.007 159.644C132.382 161.506 127.417 162.703 122.009 164.387C111.237 167.712 97.1409 172.189 83.2217 183.227C82.2021 184.025 77.6806 187.66 72.6271 193.113C63.0521 203.441 55.5605 216.03 44.9216 247.371C40.5774 260.049 35.4796 276.584 30.7364 296.266C33.6621 297.152 36.1888 297.95 38.228 298.571C39.1145 298.837 39.3362 298.925 39.5135 298.97C41.1537 299.502 42.4392 300.078 46.6948 301.585C52.1029 303.536 57.511 305.486 62.9191 307.392C65.4902 308.323 68.1056 309.254 70.6766 310.185L73.957 311.337C79.5424 288.065 85.1721 264.836 90.7576 241.564C94.0822 250.297 99.4017 259.295 105.962 269.801C117.399 288.109 128.038 303.757 137.17 316.568C138.766 315.238 140.361 313.953 141.957 312.623C142.179 312.446 142.401 312.268 142.578 312.091C149.449 306.417 156.32 300.698 163.235 295.024C167.491 291.522 171.746 287.976 176.002 284.474C160.265 264.925 144.484 245.376 128.747 225.827C151.399 218.646 169.441 213.415 181.72 209.957C186.242 208.716 189.877 207.697 192.935 206.677Z" fill="#5EE1AC"/>
<path d="M92.7967 246.529C92.7081 246.529 92.6194 246.485 92.5751 246.396C89.0731 238.816 87.8319 230.792 88.9401 223.212C90.8019 210.711 98.4265 202.865 104.544 196.57C112.567 188.325 122.32 182.119 133.624 178.085C133.757 178.041 133.845 178.085 133.889 178.218C133.934 178.351 133.889 178.44 133.757 178.484C122.541 182.474 112.789 188.68 104.854 196.881C98.7811 203.131 91.2009 210.933 89.3834 223.301C87.9649 232.831 90.5803 241.032 92.974 246.263C93.0183 246.352 92.974 246.485 92.8854 246.573C92.841 246.529 92.7967 246.529 92.7967 246.529Z" fill="#18284E"/>
<path d="M153.305 303.535C153.217 303.535 153.128 303.491 153.084 303.403L116.291 218.779C116.247 218.646 116.291 218.557 116.424 218.469L186.02 188.015C186.153 187.97 186.242 188.015 186.33 188.148C186.375 188.281 186.33 188.369 186.197 188.458L116.779 218.823L153.483 303.225C153.527 303.358 153.483 303.447 153.35 303.535C153.35 303.491 153.305 303.535 153.305 303.535Z" fill="#18284E"/>
<path d="M52.7234 303.935C52.6791 303.935 52.6347 303.935 52.6347 303.89C52.5461 303.846 52.5017 303.713 52.5461 303.58L88.7627 232.211C88.807 232.122 88.94 232.078 89.073 232.122C89.1617 232.166 89.206 232.299 89.1617 232.432L52.945 303.802C52.8564 303.89 52.8121 303.935 52.7234 303.935Z" fill="#18284E"/>
<path d="M296.532 152.02C268.649 98.515 259.695 87.7874 247.549 79.4979C246.041 78.4784 243.692 76.8825 240.811 75.1094C228.443 100.687 216.075 126.309 203.707 151.887C199.275 161.063 194.842 170.239 190.409 179.415C186.02 188.458 181.676 197.501 177.287 206.544C182.518 206.544 187.749 206.589 192.98 206.589C195.063 206.589 197.147 206.589 199.186 206.589C207.076 206.589 214.967 206.589 222.857 206.544C230.172 179.548 237.486 152.552 244.756 125.556C260.138 148.961 275.52 172.322 290.902 195.728C299.458 194.354 308.013 192.935 316.569 191.561C312.003 182.296 305.132 168.554 296.532 152.02Z" fill="#18284E"/>
<path d="M197.812 66.8196C197.679 66.8196 197.59 66.8639 197.457 66.8639C197.324 66.9082 197.147 66.9082 196.969 66.9526C196.438 67.0412 195.861 67.1299 195.196 67.2629C194.975 67.3072 194.753 67.3515 194.531 67.3959C194.31 67.4402 194.044 67.4845 193.822 67.5732C167.402 73.5132 157.739 95.057 148.651 93.5055C148.651 93.5055 148.651 93.5055 148.607 93.5055C148.518 93.5055 148.385 93.4612 148.296 93.4612C143.243 92.2643 137.436 83.6645 136.505 46.783C136.505 46.783 136.505 46.783 136.461 46.783C129.59 45.1871 122.719 43.6356 115.892 42.0398C115.892 42.0398 115.848 42.0398 115.803 42.0398C111.725 64.2928 113.055 82.113 114.784 93.5055C117.266 109.73 119.527 124.58 130.166 129.678C135.929 132.426 142.223 131.451 148.828 129.19C152.02 128.082 155.256 126.752 158.536 125.334C159.157 125.068 159.778 124.802 160.398 124.491C160.576 124.403 160.797 124.314 160.975 124.225C160.088 125.733 159.157 127.284 158.226 128.88C156.364 132.027 154.414 135.308 152.685 138.278C148.474 145.415 144.263 152.507 140.051 159.644C140.894 159.422 141.736 159.245 142.578 159.023C147.454 157.871 152.596 156.718 158.049 155.61C163.679 142.444 169.486 129.102 175.559 115.626C176.312 113.985 177.022 112.345 177.775 110.705C184.203 96.5199 190.675 82.6006 197.147 68.9917L198.255 66.7753C198.122 66.7753 197.989 66.8196 197.812 66.8196Z" fill="#18284E"/>
<path d="M158.315 128.88C158.27 128.88 158.226 128.88 158.226 128.835C158.138 128.791 158.093 128.658 158.138 128.525L170.638 105.873C170.683 105.784 170.816 105.74 170.949 105.784C171.037 105.829 171.082 105.962 171.037 106.095L158.536 128.747C158.492 128.835 158.403 128.88 158.315 128.88Z" fill="#1F0D60"/>
<path d="M122.63 35.3462C121.655 35.6122 120.458 34.9473 119.838 33.7061C118.729 30.736 117.621 27.766 116.557 24.7517C116.469 24.53 116.336 24.3084 116.203 24.0867C117.798 26.0815 119.439 28.2536 121.079 30.5144C122.01 31.8443 122.941 33.1741 123.783 34.4597C123.605 34.77 123.207 35.1689 122.63 35.3462ZM136.195 29.3175C135.264 27.8103 133.269 26.6578 129.235 24.397C125.866 22.4909 122.896 21.2054 120.813 20.3631C116.336 18.3683 111.858 16.3735 107.337 14.423C105.918 13.8468 104.278 14.5117 103.702 15.9302C103.126 17.3487 103.79 18.9889 105.253 19.5652L113.366 22.8898C113.188 22.9342 112.967 22.9785 112.789 23.0228C111.282 23.5991 110.528 25.2836 111.105 26.7908C111.681 29.3175 112.39 31.9773 113.233 34.77C114.03 37.341 114.873 39.6905 115.759 41.9069C115.759 41.9069 115.804 41.9069 115.848 41.9069C122.719 43.5027 129.59 45.0542 136.416 46.6501C136.505 45.8078 136.594 44.478 136.682 42.8821C137.436 31.6226 136.638 30.0268 136.195 29.3175Z" fill="#FFDDCA"/>
<path d="M339.664 202.554C339.841 202.244 339.93 201.934 339.974 201.579C340.196 199.983 339.088 198.52 337.492 198.299H337.403C337.226 196.88 335.985 195.772 334.522 195.772H318.741L316.569 191.649L290.902 195.816C291.922 198.387 292.542 200.515 292.897 201.978C293.34 203.795 293.606 205.258 294.803 206.721C295.557 207.608 304.289 214.523 307.924 217.537C309.121 218.601 310.983 218.468 312.003 217.316C313.067 216.119 312.978 214.257 311.781 213.238L304.511 206.766C306.196 206.766 307.924 206.766 309.609 206.766L332.039 213.814C333.547 214.301 335.187 213.459 335.674 211.908C336.162 210.356 335.32 208.76 333.768 208.273L328.981 206.766L337.625 207.918C339.221 208.14 340.683 207.031 340.905 205.436C341.082 204.239 340.55 203.131 339.664 202.554Z" fill="#FFDDCA"/>
<path d="M329.025 206.899C328.981 206.899 328.981 206.899 328.936 206.899L321.533 204.416C321.4 204.372 321.356 204.239 321.4 204.15C321.445 204.017 321.578 203.973 321.666 204.017L329.069 206.5C329.202 206.544 329.247 206.677 329.202 206.766C329.202 206.854 329.114 206.899 329.025 206.899Z" fill="#18284E"/>
<path d="M339.664 202.776C339.664 202.776 339.62 202.776 339.664 202.776L322.198 200.161C322.065 200.161 321.977 200.028 322.021 199.895C322.021 199.762 322.154 199.673 322.287 199.717L339.753 202.333C339.886 202.333 339.974 202.466 339.93 202.599C339.841 202.687 339.753 202.776 339.664 202.776Z" fill="#18284E"/>
<path d="M337.403 198.476C337.403 198.476 337.359 198.476 337.403 198.476L322.819 197.501C322.686 197.501 322.597 197.368 322.597 197.279C322.597 197.146 322.73 197.058 322.819 197.058L337.403 198.033C337.536 198.033 337.625 198.166 337.625 198.254C337.58 198.387 337.492 198.476 337.403 198.476Z" fill="#18284E"/>
</svg>
