<svg width="416" height="364" viewBox="0 0 416 364" fill="none" xmlns="http://www.w3.org/2000/svg">
<path fill-rule="evenodd" clip-rule="evenodd" d="M413 100C414.657 100 416 98.6569 416 97C416 95.3431 414.657 94 413 94C411.343 94 410 95.3431 410 97C410 98.6569 411.343 100 413 100Z" fill="#EDEFF3"/>
<path fill-rule="evenodd" clip-rule="evenodd" d="M395 100C396.657 100 398 98.6569 398 97C398 95.3431 396.657 94 395 94C393.343 94 392 95.3431 392 97C392 98.6569 393.343 100 395 100Z" fill="#EDEFF3"/>
<path fill-rule="evenodd" clip-rule="evenodd" d="M413 82C414.657 82 416 80.6569 416 79C416 77.3431 414.657 76 413 76C411.343 76 410 77.3431 410 79C410 80.6569 411.343 82 413 82Z" fill="#EDEFF3"/>
<path fill-rule="evenodd" clip-rule="evenodd" d="M395 82C396.657 82 398 80.6569 398 79C398 77.3431 396.657 76 395 76C393.343 76 392 77.3431 392 79C392 80.6569 393.343 82 395 82Z" fill="#EDEFF3"/>
<path fill-rule="evenodd" clip-rule="evenodd" d="M21 100C22.6569 100 24 98.6569 24 97C24 95.3431 22.6569 94 21 94C19.3431 94 18 95.3431 18 97C18 98.6569 19.3431 100 21 100Z" fill="#EDEFF3"/>
<path fill-rule="evenodd" clip-rule="evenodd" d="M3 100C4.65685 100 6 98.6569 6 97C6 95.3431 4.65685 94 3 94C1.34315 94 0 95.3431 0 97C0 98.6569 1.34315 100 3 100Z" fill="#EDEFF3"/>
<path fill-rule="evenodd" clip-rule="evenodd" d="M21 82C22.6569 82 24 80.6569 24 79C24 77.3431 22.6569 76 21 76C19.3431 76 18 77.3431 18 79C18 80.6569 19.3431 82 21 82Z" fill="#EDEFF3"/>
<path fill-rule="evenodd" clip-rule="evenodd" d="M3 82C4.65685 82 6 80.6569 6 79C6 77.3431 4.65685 76 3 76C1.34315 76 0 77.3431 0 79C0 80.6569 1.34315 82 3 82Z" fill="#EDEFF3"/>
<path d="M177.092 64.7242L186.181 82.9025C191.774 81.5042 186.181 62.6267 180.588 60.5292C176.113 58.8512 175.694 62.6267 177.092 64.7242Z" fill="#EEC8B2"/>
<path d="M185.978 36.4443L166.462 41.674C165.308 41.9831 164.62 42.6137 164.448 43.3772L163.109 45.8466L207.156 89.1948L232.326 84.3007L233.942 81.1167C234.288 80.3336 234.035 79.3632 233.12 78.4487L192.996 38.325C191.358 36.6876 188.216 35.8444 185.978 36.4443Z" fill="#FB6F78"/>
<rect x="167.076" y="47.0522" width="28.5951" height="65.1333" rx="4.19498" transform="rotate(-36.206 167.076 47.0522)" fill="#FB6F78"/>
<path d="M228.83 110.869L228.131 121.357L207.855 126.251L209.253 110.17C203.66 104.577 191.914 93.1103 189.677 91.9916C187.439 90.873 186.414 83.6017 186.181 80.1059C183.151 71.2502 177.53 53.8299 176.393 50.0418C174.295 43.0502 181.287 41.6518 184.083 49.3426C186.437 55.8141 190.142 65.1899 193.173 74.5125C192.24 66.3561 192.473 53.5376 192.473 45.8468C192.473 39.5935 200.164 40.2535 200.164 48.6435C200.164 50.4124 201.563 69.3849 201.563 78.7075C202.961 71.4824 205.058 56.3343 205.058 56.3343C205.058 56.3343 205.758 48.6435 209.253 50.0418C212.156 51.2024 213.029 54.2368 212.05 59.1309C211.491 61.9276 209.487 75.9109 208.554 82.9025C210.885 76.61 215.266 64.0251 216.944 61.2284C219.042 57.7326 222.118 60.5293 221.139 65.4234C220.44 68.9192 218.576 78.2419 216.245 85C230.228 92.8306 230.228 105.276 228.83 110.869Z" fill="#FFDDCA"/>
<path d="M317.624 18.5792C322.098 33.1218 319.721 54.2366 307.836 64.724C298.047 54.4701 276.373 31.304 267.983 20.6767C257.496 7.39259 312.031 0.400949 317.624 18.5792Z" fill="#2F2524"/>
<path d="M286.161 90.5932L282.666 92.6906C281.547 107.233 294.784 103.41 301.543 99.6823L313.429 88.4957L309.234 84.3007L308.535 54.2366C310.631 55.6349 312.73 55.635 314.128 50.7408C314.987 47.7344 316.925 37.4567 312.031 36.0584C308.115 34.9397 307.136 40.4855 306.437 43.05C295.95 54.2366 301.963 25.7107 298.047 20.6767C293.153 14.3843 254.263 11.7219 263.089 39.5542C267.744 54.2366 273.577 70.3174 277.771 75.9107C281.965 81.504 286.861 82.2032 288.259 81.504L286.161 90.5932Z" fill="#FFDDCA"/>
<path d="M269.381 38.156C268.449 38.3895 266.585 39.1348 266.585 40.2535" stroke="#644948" stroke-width="1.39833"/>
<path d="M278.471 74.5123C279.636 74.2788 282.386 73.953 284.064 74.5123" stroke="#644948" stroke-width="1.39833"/>
<path d="M268.682 31.8635C283.225 31.8635 303.175 16.9475 305.738 10.8886C300.145 -8.688 268.682 13.6852 263.788 3.89695C259.873 -3.93369 257.03 2.96427 256.097 7.39277C254.419 0.680796 249.805 5.99444 251.902 13.6852C249.106 10.8886 248.64 15.5492 249.106 17.8802C249.573 22.5409 254.14 31.8635 268.682 31.8635Z" fill="#644948"/>
<path d="M279.954 51.338C281.095 51.1372 281.64 48.8163 281.171 46.1543C280.702 43.4923 279.398 41.4972 278.257 41.698C277.116 41.8989 276.571 44.2198 277.04 46.8818C277.508 49.5438 278.813 51.5389 279.954 51.338Z" fill="#1B295B"/>
<path d="M271.691 52.7921C272.832 52.5913 273.377 50.2704 272.908 47.6084C272.44 44.9464 271.135 42.9513 269.994 43.1521C268.853 43.353 268.308 45.6739 268.777 48.3359C269.246 50.9979 270.551 52.993 271.691 52.7921Z" fill="#1B295B"/>
<path d="M277.184 64.7241C277.743 62.4868 275.554 54.7023 274.388 52.1392C270.193 59.83 263.9 61.9275 269.493 64.7241C272.29 65.6568 276.625 66.9614 277.184 64.7241Z" fill="#EEC8B2"/>
<path d="M275.674 71.0166C279.17 71.7157 286.581 71.9954 288.259 67.5208" stroke="#644948" stroke-width="1.39833"/>
<path d="M276.373 36.7577C278.005 36.5241 281.407 36.3382 281.966 37.4568" stroke="#644948" stroke-width="1.39833"/>
<path d="M329.684 145.128L354.155 147.925V135.256C348.562 132.459 338.074 128.264 329.684 126.866C316.4 124.652 301.019 128.963 298.222 131.061C291.675 135.97 286.35 145.676 284.938 152.735C283.54 159.727 284.239 161.824 284.239 168.117C284.239 173.71 287.735 173.71 289.133 173.71C288.434 180.002 294.726 182.799 296.125 177.206C296.125 179.595 302.417 181.401 304.515 172.312C306.612 174.409 310.108 172.312 310.807 168.117L313.604 154.133C319.197 152.735 325.315 149.323 329.684 145.128Z" fill="#EEC8B2"/>
<path d="M261.691 108.771C266.807 97.8057 271.013 96.6521 274.276 96.8856C280.428 116.462 264.721 148.39 256.097 161.908C244.055 180.785 234.983 182.603 223.237 189.874C208.554 198.964 204.359 130.445 207.855 119.259C214.147 119.259 224.169 117.861 230.228 115.064C231.906 120.098 232.326 143.03 236.521 150.022C247.008 140.234 256.797 119.259 261.691 108.771Z" fill="#18284E"/>
<path d="M309.234 88.4957C295.251 93.3898 285.462 107.373 283.365 91.9915C279.17 94.089 272.368 94.089 270.081 100.381C267.284 108.072 265.187 132.543 261.691 143.03C260.099 147.806 254.233 165.637 246.309 183.582L309.234 200.362C312.73 189.175 321.12 162.887 326.713 147.225C333.705 127.649 330.908 88.4957 323.916 86.3982C318.323 84.7202 311.797 87.0973 309.234 88.4957Z" fill="#18284E"/>
<path d="M316.925 88.4958C321.399 81.2245 330.908 82.7627 339.298 90.5933C360.273 110.17 407.816 146.526 398.727 162.607C384.744 181.485 355.379 154.916 336.501 148.624C337.62 144.149 339.997 133.242 336.501 128.348C339.308 126.95 341.767 127.256 345.59 128.348C341.627 126.251 336.222 122.475 329.51 118.56C321.12 113.666 311.331 97.5849 316.925 88.4958Z" fill="#18284E"/>
<path d="M235.822 177.989C257.636 177.429 289.657 191.739 302.941 198.964C305.179 215.744 251.203 218.075 223.936 217.142C218.81 204.324 214.008 178.548 235.822 177.989Z" fill="#5EE1AC"/>
<path d="M148.426 218.54L221.838 225.532L225.334 192.671C160.312 179.387 147.028 183.582 140.036 187.777C134.443 191.133 142.134 210.15 148.426 218.54Z" fill="#5EE1AC"/>
<path d="M342.095 143.031C354.4 141.912 376.587 166.802 386.142 179.387C398.727 195.962 412.71 216.443 415.507 247.206C417.62 270.446 398.96 314.791 386.142 324.114H126.053C91.9337 315.165 79.2746 287.758 87.5989 260.49C107.875 194.07 258.195 215.045 279.869 208.752C301.543 202.46 305.738 187.777 309.234 168.201C312.73 148.624 326.713 144.429 342.095 143.031Z" fill="#F5F6F8"/>
<path d="M126.053 324.114C91.9337 315.165 79.2746 287.757 87.5989 260.49C112.07 296.147 157.515 292.652 184.084 273.774C210.652 254.897 227.432 229.727 247.008 232.523C266.585 235.32 320.421 280.766 332.306 260.49C344.192 240.214 318.323 229.727 320.421 219.939C322.518 210.15 346.29 208.752 353.98 194.069C361.671 179.387 346.989 174.493 353.98 161.908C359.574 151.84 377.752 169.365 386.142 179.387C391.91 186.984 397.973 195.403 403.118 205.256C406.314 215.977 412.011 240.913 409.214 254.897C406.418 268.88 384.278 306.868 373.557 324.114H126.053Z" fill="#1B295B" fill-opacity="0.2"/>
<path d="M94.9904 276.126C86.5319 288.289 129.593 298.305 132.67 289.005C136.54 277.299 109.522 255.232 94.9904 276.126Z" fill="#5EE1AC"/>
<path d="M184.083 301.741C180.458 312.618 229.11 318.241 230.228 308.732C231.627 296.847 191.774 278.668 184.083 301.741Z" fill="#5EE1AC"/>
<path d="M94.9904 276.126C86.5319 288.289 129.593 298.305 132.67 289.005C136.54 277.299 109.522 255.232 94.9904 276.126Z" fill="#1B295B" fill-opacity="0.6"/>
<path d="M184.083 301.741C180.458 312.618 229.11 318.241 230.228 308.732C231.627 296.847 191.774 278.668 184.083 301.741Z" fill="#1B295B" fill-opacity="0.6"/>
<path d="M81.3064 301.041C89.6963 296.567 101.582 277.27 105.078 268.181L131.646 263.287C130.715 264.918 127.591 270.698 122.557 280.766C116.265 293.351 112.07 304.537 112.07 312.927C112.07 317.97 70.8189 306.635 81.3064 301.041Z" fill="white"/>
<path d="M131.646 263.287C130.713 264.918 127.591 270.698 122.557 280.766C116.404 274.613 104.86 276.804 99.8566 278.668C102.154 274.696 104.008 270.961 105.078 268.181L131.646 263.287Z" fill="#1B295B" fill-opacity="0.2"/>
<path d="M176.875 321.554C186.117 316.637 196.413 288.44 200.264 278.453L230.927 273.075C229.9 274.868 226.46 281.219 220.915 292.282C213.984 306.11 212.159 325.395 212.159 334.614C212.159 340.154 165.322 327.699 176.875 321.554Z" fill="white"/>
<path d="M230.927 273.075C229.901 274.868 226.461 281.219 220.915 292.282C219.226 295.652 217.84 299.345 216.711 303.139C205.337 296.427 194.828 298.944 190.995 301.042C195.028 292.382 198.401 283.286 200.263 278.453L230.927 273.075Z" fill="#1B295B" fill-opacity="0.2"/>
<path d="M27.5616 312.363C44.0339 312.363 59.8826 298.873 75.6613 291.82C79.1432 290.263 84.3827 288.708 90.3955 303.139C93.8913 311.529 101.582 309.432 107.175 306.635C112.07 304.188 117.204 297.582 118.489 309.713C119.776 321.842 118.489 329.593 118.489 340.195H3.18317V329.593C1.07449 316.339 17.6782 312.363 27.5616 312.363Z" fill="#18284E"/>
<path d="M3.18317 340.195V329.591H118.807C118.654 332.982 118.489 336.407 118.489 340.195H3.18317Z" fill="#EBEBEB"/>
<path d="M123.256 334.601C140.735 334.601 157.553 320.368 174.295 312.927C177.907 311.322 184.084 308.732 188.084 322.716C191.774 333.203 196.668 333.902 204.359 329.707C213.148 324.914 217.643 316.423 219.741 331.805C221.838 347.186 219.741 352.78 219.741 363.966H97.3872V352.78C95.1499 338.796 112.769 334.601 123.256 334.601Z" fill="#18284E"/>
<path d="M97.3872 363.966V352.78H220.077C219.916 356.357 219.741 359.97 219.741 363.966H97.3872Z" fill="#EBEBEB"/>
<path d="M241.415 178.688C257.636 182.044 254.699 209.451 251.203 222.735L230.228 308.733C228.209 292.583 189.926 288.09 184.558 300.24L184.083 301.741C184.188 301.215 184.348 300.716 184.558 300.24L218.343 193.37C219.275 187.078 225.194 175.332 241.415 178.688Z" fill="#5EE1AC"/>
<path d="M159.99 198.87C166.009 216.093 143.94 265.77 132.154 288.457C133.658 272.484 99.8035 270.4 95.2897 275.956C109.835 247.02 131.401 198.87 137.42 189.842C139.736 186.369 152.467 177.341 159.99 198.87Z" fill="#5EE1AC"/>
<path d="M159.99 198.87C166.009 216.093 143.94 265.77 132.154 288.457C133.658 272.484 99.8035 270.4 95.2897 275.956C109.835 247.02 131.401 198.87 137.42 189.842C139.736 186.369 152.467 177.341 159.99 198.87Z" fill="white" fill-opacity="0.1"/>
<path d="M241.415 178.688C257.636 182.044 254.699 209.451 251.203 222.735L230.228 308.733C228.209 292.583 189.926 288.09 184.558 300.24L184.083 301.741C184.188 301.215 184.348 300.716 184.558 300.24L218.343 193.37C219.275 187.078 225.194 175.332 241.415 178.688Z" fill="white" fill-opacity="0.1"/>
<path d="M313.604 154.133C319.197 152.735 328.286 148.54 332.481 142.947C337.096 132.252 332.54 127.771 329.684 126.866C316.4 124.652 301.019 128.963 298.222 131.061C291.675 135.97 286.35 145.676 284.938 152.735C283.54 159.727 284.239 161.824 284.239 168.117C284.239 173.71 287.735 173.71 289.133 173.71C288.434 180.002 294.726 182.799 296.125 177.206C296.125 179.595 302.417 181.401 304.515 172.312C306.612 174.409 310.108 172.312 310.807 168.117L313.604 154.133Z" fill="#FFDDCA"/>
</svg>
