<svg width="22" height="22" viewBox="0 0 22 22" fill="none" xmlns="http://www.w3.org/2000/svg">
<path fill-rule="evenodd" clip-rule="evenodd" d="M12.3579 7.40736L14.8263 9.83503C15.2805 10.2818 15.2786 11.0081 14.8297 11.4496L4.95037 21.1661C4.498 21.611 3.76625 21.6127 3.30877 21.1627L0.840414 18.7351C0.386149 18.2883 0.388057 17.562 0.836971 17.1205L10.7163 7.40397C11.1687 6.95906 11.9004 6.95741 12.3579 7.40736ZM17.6399 6.7643L15.9387 7.64397C15.3675 7.93929 14.9931 7.67051 15.102 7.04613L15.4269 5.18295L14.0506 3.86344C13.5885 3.42046 13.7327 2.98722 14.3701 2.89612L16.2722 2.62429L17.1229 0.92911C17.4084 0.360015 17.872 0.361036 18.157 0.92911L19.0077 2.62429L20.9097 2.89612C21.5483 2.98738 21.6905 3.42126 21.2293 3.86344L19.8529 5.18295L20.1779 7.04613C20.2869 7.67163 19.9113 7.93876 19.3412 7.64397L17.6399 6.7643ZM18.9531 15.5133L18.0965 15.9562C17.5257 16.2513 17.1503 15.9895 17.2603 15.3587L17.4239 14.4206L16.7309 13.7562C16.2691 13.3135 16.4063 12.8815 17.0503 12.7895L18.008 12.6526L18.4363 11.7991C18.7217 11.2303 19.1818 11.2252 19.4698 11.7991L19.8981 12.6526L20.8558 12.7895C21.494 12.8807 21.6412 13.3095 21.1752 13.7562L20.4822 14.4206L20.6458 15.3587C20.7548 15.9838 20.3857 16.254 19.8096 15.9562L18.9531 15.5133ZM7.31863 4.6427L6.46204 5.08561C5.89123 5.38076 5.51588 5.11894 5.62589 4.48812L5.78948 3.55002L5.09649 2.88566C4.63469 2.44293 4.77188 2.01093 5.41587 1.91889L6.37356 1.78203L6.80185 0.928516C7.08726 0.359749 7.5474 0.35458 7.8354 0.928516L8.26369 1.78203L9.22138 1.91889C9.85957 2.0101 10.0068 2.43891 9.54076 2.88566L8.84777 3.55002L9.01136 4.48812C9.12038 5.11325 8.75121 5.38344 8.17521 5.08561L7.31863 4.6427ZM9.4239 11.9182L3.3099 17.9322L4.12629 18.7399L10.2421 12.723L9.4239 11.9182Z" fill="#FB6F78"/>
</svg>
