<svg width="24" height="24" viewBox="0 0 24 24" fill="none" xmlns="http://www.w3.org/2000/svg">
<g clip-path="url(#clip0)">
<path fill-rule="evenodd" clip-rule="evenodd" d="M13.0003 18.0007C13.0003 18.735 12.2354 19.2189 11.5719 18.9043C11.4441 18.8437 11.2222 18.7294 10.9194 18.5593C10.4253 18.2818 9.87741 17.9445 9.28923 17.5455C7.61609 16.4105 5.94528 15.0041 4.38536 13.3089C2.78001 11.5582 1.63722 9.89191 0.857247 8.33627C0.376691 7.37781 0.122158 6.65223 0.0248391 6.2207C-0.096663 5.68195 0.241586 5.14671 0.78034 5.02521C1.31909 4.9037 1.85434 5.24195 1.97584 5.78071C1.98745 5.83218 2.40577 6.9625 2.64511 7.43986C3.34276 8.8313 4.38032 10.3442 5.82661 11.9214C7.30681 13.5301 8.86057 14.838 10.412 15.8904C10.614 16.0274 10.8103 16.1562 11.0003 16.2769L11.0015 7.00071H10.0027C9.45037 7.00071 9.00266 6.55299 9.00266 6.00071C9.00266 5.44842 9.45037 5.00071 10.0027 5.00071H11.0015C12.1063 5.00071 13.0003 5.8978 13.0003 7.00318V12.0007C13.0003 12.0007 14.0258 12.0008 14.0388 12.001C15.4372 11.9878 17.2295 11.2543 18.5286 10.0195C18.8079 9.754 19.124 9.41553 19.4683 9.01564C19.6951 8.7522 19.9317 8.46494 20.1759 8.15764C20.6473 7.56443 21.1238 6.92625 21.58 6.28776C21.7399 6.0641 22.1442 5.48176 22.1713 5.44147C22.4802 4.98362 23.1017 4.86284 23.5596 5.17169C24.0174 5.48055 24.1382 6.10209 23.8294 6.55994C23.7979 6.6065 23.3732 7.21829 23.2073 7.45057C22.7326 8.11476 22.2365 8.77927 21.7418 9.40189C21.482 9.72878 21.2289 10.0361 20.9839 10.3206C20.5994 10.7673 20.2395 11.1526 19.9064 11.4692C19.2525 12.0908 18.5037 12.6121 17.7198 13.0171C18.3882 13.3 19.0515 13.6281 19.6407 13.9828C20.1939 14.3158 20.7597 14.7137 21.3318 15.163C21.9288 15.6317 22.502 16.1318 23.0328 16.6318C23.2187 16.807 23.6875 17.2724 23.7233 17.3099C24.1049 17.7092 24.0905 18.3422 23.6912 18.7237C23.2919 19.1052 22.6589 19.0909 22.2773 18.6916C22.2519 18.665 21.8326 18.2489 21.6614 18.0876C21.1715 17.6261 20.6425 17.1646 20.0966 16.7359C19.5855 16.3345 19.0858 15.9832 18.6093 15.6963C17.0515 14.7586 14.8197 14.0208 14.0318 14.0011C14.0213 14.0012 13.0003 14.0012 13.0003 14.0012V18.0007Z" fill="#18284E"/>
</g>
<defs>
<clipPath id="clip0">
<rect width="24.0003" height="24" fill="white"/>
</clipPath>
</defs>
</svg>
