<svg width="24" height="24" viewBox="0 0 24 24" fill="none" xmlns="http://www.w3.org/2000/svg">
<path fill-rule="evenodd" clip-rule="evenodd" d="M5 21.9999C5 21.9999 4.99496 18.4533 4.99496 18.1364C3.09656 16.2737 2 13.7242 2 10.9999C2 5.47703 6.47715 0.999878 12 0.999878C17.5228 0.999878 22 5.47703 22 10.9999C22 16.5227 17.5228 20.9999 12 20.9999C11.216 20.9999 10.4434 20.9095 9.6935 20.7323C9.51932 20.8392 6.5547 22.8319 6.5547 22.8319C5.89015 23.275 5 22.7986 5 21.9999ZM4 10.9999C4 13.3071 4.98074 15.4539 6.66691 16.9631C6.87886 17.1528 7 17.4237 7 17.7082V20.1595L8.96462 18.8216C9.20883 18.6588 9.51223 18.6115 9.79441 18.6922C10.505 18.8956 11.245 18.9999 12 18.9999C16.4183 18.9999 20 15.4182 20 10.9999C20 6.5816 16.4183 2.99988 12 2.99988C7.58172 2.99988 4 6.5816 4 10.9999ZM9.14853 7.13611C9.33224 6.95245 9.63403 6.95638 9.81415 7.13646L11.1594 8.48133C11.3464 8.66829 11.3453 8.96775 11.1598 9.15312C10.9731 9.33979 10.9043 9.68426 11.0032 9.9254C11.0032 9.9254 11.1594 10.4953 11.8304 11.1661C12.5014 11.8369 13.0725 11.9943 13.0725 11.9943C13.3113 12.0985 13.6603 12.0237 13.8457 11.8383C14.0324 11.6517 14.332 11.6532 14.5177 11.8388L15.8629 13.1837C16.0468 13.3676 16.0445 13.668 15.8632 13.8492L15.1887 14.5236C14.6324 15.0797 13.6586 15.1635 13.0301 14.6974C13.0301 14.6974 12.1473 14.1681 10.4742 12.4955C8.80121 10.8229 8.29906 9.97146 8.29906 9.97146C7.83939 9.33413 7.91883 8.36551 8.47396 7.81051L9.14853 7.13611Z" fill="#18284E"/>
</svg>
